ISO-10303-21;
HEADER;
FILE_DESCRIPTION(('STEP AP203'),'1');
FILE_NAME('epl_00_250_ntn.stp','2024-07-11T12:36:11',('TraceParts'),('TraceParts S.A.'),'Spatial InterOp 3D',' ',' ');
FILE_SCHEMA(('CONFIG_CONTROL_DESIGN'));
ENDSEC;
DATA;
#1=DESIGN_CONTEXT('',#27,'design');
#2=APPLICATION_PROTOCOL_DEFINITION('INTERNATIONAL STANDARD','config_control_design',1994,#27);
#3=PRODUCT_CATEGORY_RELATIONSHIP('NONE','NONE',#28,#29);
#4=DATE_AND_TIME(#30,#31);
#5=DATE_TIME_ROLE('creation_date');
#6=DATE_TIME_ROLE('classification_date');
#7=PERSON_AND_ORGANIZATION_ROLE('creator');
#8=PERSON_AND_ORGANIZATION_ROLE('design_supplier');
#9=PERSON_AND_ORGANIZATION_ROLE('classification_officer');
#10=PERSON_AND_ORGANIZATION_ROLE('design_owner');
#11=APPROVAL_PERSON_ORGANIZATION(#32,#33,#34);
#12=APPROVAL_DATE_TIME(#4,#33);
#13=CC_DESIGN_APPROVAL(#33,(#35,#36,#37));
#14=CC_DESIGN_DATE_AND_TIME_ASSIGNMENT(#4,#5,(#37));
#15=CC_DESIGN_DATE_AND_TIME_ASSIGNMENT(#4,#6,(#35));
#16=CC_DESIGN_PERSON_AND_ORGANIZATION_ASSIGNMENT(#32,#10,(#38));
#17=CC_DESIGN_PERSON_AND_ORGANIZATION_ASSIGNMENT(#32,#7,(#37));
#18=CC_DESIGN_PERSON_AND_ORGANIZATION_ASSIGNMENT(#32,#7,(#36));
#19=CC_DESIGN_PERSON_AND_ORGANIZATION_ASSIGNMENT(#32,#8,(#36));
#20=CC_DESIGN_SECURITY_CLASSIFICATION(#35,(#36));
#21=CC_DESIGN_PERSON_AND_ORGANIZATION_ASSIGNMENT(#32,#9,(#35));
#22=SHAPE_DEFINITION_REPRESENTATION(#39,#40);
#23= (GEOMETRIC_REPRESENTATION_CONTEXT(3)GLOBAL_UNCERTAINTY_ASSIGNED_CONTEXT((#43))GLOBAL_UNIT_ASSIGNED_CONTEXT((#45,#46,#47))REPRESENTATION_CONTEXT('NONE','WORKSPACE'));
#27=APPLICATION_CONTEXT('CONFIGURATION CONTROLLED 3D DESIGNS OF MECHANICAL PARTS AND ASSEMBLIES');
#28=PRODUCT_CATEGORY('part','NONE');
#29=PRODUCT_RELATED_PRODUCT_CATEGORY('detail',' ',(#38));
#30=CALENDAR_DATE(2024,11,6);
#31=LOCAL_TIME(14,36,11.0,#49);
#32=PERSON_AND_ORGANIZATION(#50,#51);
#33=APPROVAL(#52,'SOLID MODEL');
#34=APPROVAL_ROLE('APPROVED');
#35=SECURITY_CLASSIFICATION('','',#53);
#36=PRODUCT_DEFINITION_FORMATION_WITH_SPECIFIED_SOURCE(' ','NONE',#38,.NOT_KNOWN.);
#37=PRODUCT_DEFINITION('','NONE',#36,#1);
#38=PRODUCT('1','','PART--DESC',(#54));
#39=PRODUCT_DEFINITION_SHAPE('NONE','NONE',#37);
#40=ADVANCED_BREP_SHAPE_REPRESENTATION('1',(#55,#56),#23);
#43=UNCERTAINTY_MEASURE_WITH_UNIT(LENGTH_MEASURE(1.0E-06),#45,'','');
#45= (CONVERSION_BASED_UNIT('MILLIMETRE',#59)LENGTH_UNIT()NAMED_UNIT(#62));
#46= (NAMED_UNIT(#64)PLANE_ANGLE_UNIT()SI_UNIT($,.RADIAN.));
#47= (NAMED_UNIT(#64)SOLID_ANGLE_UNIT()SI_UNIT($,.STERADIAN.));
#49=COORDINATED_UNIVERSAL_TIME_OFFSET(1,0,.AHEAD.);
#50=PERSON('','UNSPECIFIED',$,$,$,$);
#51=ORGANIZATION('UNSPECIFIED','UNSPECIFIED','UNSPECIFIED');
#52=APPROVAL_STATUS('approved');
#53=SECURITY_CLASSIFICATION_LEVEL('unclassified');
#54=MECHANICAL_CONTEXT('',#27,'mechanical');
#55=MANIFOLD_SOLID_BREP('1',#70);
#56=AXIS2_PLACEMENT_3D('',#71,#72,#73);
#59=LENGTH_MEASURE_WITH_UNIT(LENGTH_MEASURE(1.0),#74);
#62=DIMENSIONAL_EXPONENTS(1.0,0.0,0.0,0.0,0.0,0.0,0.0);
#64=DIMENSIONAL_EXPONENTS(0.0,0.0,0.0,0.0,0.0,0.0,0.0);
#70=CLOSED_SHELL('',(#75,#76,#77,#78,#79,#80,#81,#82,#83,#84,#85,#86,#87,#88,#89,#90,#91,#92,#93,#94,#95,#96,#97,#98,#99,#100,#101,#102,#103,#104,#105,#106,#107,#108,#109,#110,#111,#112,#113,#114,#115,#116,#117,#118,#119,#120));
#71=CARTESIAN_POINT('',(0.0,0.0,0.0));
#72=DIRECTION('',(0.0,0.0,1.0));
#73=DIRECTION('',(1.0,0.0,0.0));
#74= (NAMED_UNIT(#62)LENGTH_UNIT()SI_UNIT(.MILLI.,.METRE.));
#75=ADVANCED_FACE('',(#122),#123,.T.);
#76=ADVANCED_FACE('',(#124),#125,.T.);
#77=ADVANCED_FACE('',(#126),#127,.T.);
#78=ADVANCED_FACE('',(#128),#129,.T.);
#79=ADVANCED_FACE('',(#130),#131,.T.);
#80=ADVANCED_FACE('',(#132),#133,.T.);
#81=ADVANCED_FACE('',(#134),#135,.T.);
#82=ADVANCED_FACE('',(#136),#137,.T.);
#83=ADVANCED_FACE('',(#138),#139,.T.);
#84=ADVANCED_FACE('',(#140),#141,.T.);
#85=ADVANCED_FACE('',(#142),#143,.T.);
#86=ADVANCED_FACE('',(#144),#145,.T.);
#87=ADVANCED_FACE('',(#146),#147,.T.);
#88=ADVANCED_FACE('',(#148,#149,#150,#151,#152,#153),#154,.T.);
#89=ADVANCED_FACE('',(#155),#156,.T.);
#90=ADVANCED_FACE('',(#157),#158,.T.);
#91=ADVANCED_FACE('',(#159),#160,.T.);
#92=ADVANCED_FACE('',(#161),#162,.T.);
#93=ADVANCED_FACE('',(#163),#164,.T.);
#94=ADVANCED_FACE('',(#165),#166,.T.);
#95=ADVANCED_FACE('',(#167),#168,.T.);
#96=ADVANCED_FACE('',(#169),#170,.T.);
#97=ADVANCED_FACE('',(#171),#172,.T.);
#98=ADVANCED_FACE('',(#173),#174,.T.);
#99=ADVANCED_FACE('',(#175),#176,.T.);
#100=ADVANCED_FACE('',(#177),#178,.T.);
#101=ADVANCED_FACE('',(#179),#180,.T.);
#102=ADVANCED_FACE('',(#181),#182,.T.);
#103=ADVANCED_FACE('',(#183),#184,.T.);
#104=ADVANCED_FACE('',(#185),#186,.T.);
#105=ADVANCED_FACE('',(#187),#188,.T.);
#106=ADVANCED_FACE('',(#189),#190,.T.);
#107=ADVANCED_FACE('',(#191),#192,.T.);
#108=ADVANCED_FACE('',(#193),#194,.T.);
#109=ADVANCED_FACE('',(#195),#196,.T.);
#110=ADVANCED_FACE('',(#197),#198,.T.);
#111=ADVANCED_FACE('',(#199),#200,.T.);
#112=ADVANCED_FACE('',(#201),#202,.T.);
#113=ADVANCED_FACE('',(#203),#204,.T.);
#114=ADVANCED_FACE('',(#205),#206,.T.);
#115=ADVANCED_FACE('',(#207),#208,.T.);
#116=ADVANCED_FACE('',(#209),#210,.T.);
#117=ADVANCED_FACE('',(#211),#212,.T.);
#118=ADVANCED_FACE('',(#213),#214,.T.);
#119=ADVANCED_FACE('',(#215),#216,.F.);
#120=ADVANCED_FACE('',(#217),#218,.T.);
#122=FACE_OUTER_BOUND('',#219,.T.);
#123=CONICAL_SURFACE('',#220,0.288397459621557,0.523598775598299);
#124=FACE_OUTER_BOUND('',#221,.T.);
#125=CYLINDRICAL_SURFACE('',#222,0.375000000000001);
#126=FACE_OUTER_BOUND('',#223,.T.);
#127=CONICAL_SURFACE('',#224,0.288397459621557,0.523598775598299);
#128=FACE_OUTER_BOUND('',#225,.T.);
#129=CYLINDRICAL_SURFACE('',#226,0.375000000000001);
#130=FACE_OUTER_BOUND('',#227,.T.);
#131=CONICAL_SURFACE('',#228,4.17487373415292,0.785398163397448);
#132=FACE_OUTER_BOUND('',#229,.T.);
#133=CONICAL_SURFACE('',#230,0.288397459621557,0.523598775598299);
#134=FACE_OUTER_BOUND('',#231,.T.);
#135=CYLINDRICAL_SURFACE('',#232,0.375000000000001);
#136=FACE_OUTER_BOUND('',#233,.T.);
#137=CYLINDRICAL_SURFACE('',#234,0.349999999999998);
#138=FACE_OUTER_BOUND('',#235,.T.);
#139=CONICAL_SURFACE('',#236,0.263397459621554,0.523598775598299);
#140=FACE_OUTER_BOUND('',#237,.T.);
#141=CYLINDRICAL_SURFACE('',#238,3.4);
#142=FACE_OUTER_BOUND('',#239,.T.);
#143=CONICAL_SURFACE('',#240,3.3,0.785398163397446);
#144=FACE_OUTER_BOUND('',#241,.T.);
#145=CYLINDRICAL_SURFACE('',#242,0.375000000000001);
#146=FACE_OUTER_BOUND('',#243,.T.);
#147=CONICAL_SURFACE('',#244,0.288397459621557,0.523598775598299);
#148=FACE_OUTER_BOUND('',#245,.T.);
#149=FACE_BOUND('',#246,.T.);
#150=FACE_BOUND('',#247,.T.);
#151=FACE_BOUND('',#248,.T.);
#152=FACE_BOUND('',#249,.T.);
#153=FACE_BOUND('',#250,.T.);
#154=PLANE('',#251);
#155=FACE_OUTER_BOUND('',#252,.T.);
#156=CONICAL_SURFACE('',#253,0.288397459621557,0.523598775598299);
#157=FACE_OUTER_BOUND('',#254,.T.);
#158=PLANE('',#255);
#159=FACE_OUTER_BOUND('',#256,.T.);
#160=CYLINDRICAL_SURFACE('',#257,0.375000000000001);
#161=FACE_OUTER_BOUND('',#258,.T.);
#162=PLANE('',#259);
#163=FACE_OUTER_BOUND('',#260,.T.);
#164=PLANE('',#261);
#165=FACE_OUTER_BOUND('',#262,.T.);
#166=PLANE('',#263);
#167=FACE_OUTER_BOUND('',#264,.T.);
#168=CONICAL_SURFACE('',#265,3.3,0.785398163397446);
#169=FACE_OUTER_BOUND('',#266,.T.);
#170=CYLINDRICAL_SURFACE('',#267,3.4);
#171=FACE_OUTER_BOUND('',#268,.T.);
#172=PLANE('',#269);
#173=FACE_OUTER_BOUND('',#270,.T.);
#174=CONICAL_SURFACE('',#271,0.263397459621554,0.523598775598299);
#175=FACE_OUTER_BOUND('',#272,.T.);
#176=PLANE('',#273);
#177=FACE_OUTER_BOUND('',#274,.T.);
#178=CYLINDRICAL_SURFACE('',#275,0.349999999999998);
#179=FACE_OUTER_BOUND('',#276,.T.);
#180=CYLINDRICAL_SURFACE('',#277,0.375000000000001);
#181=FACE_OUTER_BOUND('',#278,.T.);
#182=PLANE('',#279);
#183=FACE_OUTER_BOUND('',#280,.T.);
#184=CONICAL_SURFACE('',#281,0.288397459621557,0.523598775598299);
#185=FACE_OUTER_BOUND('',#282,.T.);
#186=PLANE('',#283);
#187=FACE_OUTER_BOUND('',#284,.T.);
#188=PLANE('',#285);
#189=FACE_OUTER_BOUND('',#286,.T.);
#190=PLANE('',#287);
#191=FACE_OUTER_BOUND('',#288,.T.);
#192=CONICAL_SURFACE('',#289,4.17487373415292,0.785398163397448);
#193=FACE_OUTER_BOUND('',#290,.T.);
#194=CYLINDRICAL_SURFACE('',#291,4.7);
#195=FACE_OUTER_BOUND('',#292,.T.);
#196=CYLINDRICAL_SURFACE('',#293,4.7);
#197=FACE_OUTER_BOUND('',#294,.T.);
#198=CYLINDRICAL_SURFACE('',#295,4.7);
#199=FACE_OUTER_BOUND('',#296,.T.);
#200=CYLINDRICAL_SURFACE('',#297,4.7);
#201=FACE_OUTER_BOUND('',#298,.T.);
#202=PLANE('',#299);
#203=FACE_OUTER_BOUND('',#300,.T.);
#204=CYLINDRICAL_SURFACE('',#301,0.375000000000001);
#205=FACE_OUTER_BOUND('',#302,.T.);
#206=PLANE('',#303);
#207=FACE_OUTER_BOUND('',#304,.T.);
#208=CONICAL_SURFACE('',#305,0.288397459621557,0.523598775598299);
#209=FACE_OUTER_BOUND('',#306,.T.);
#210=CYLINDRICAL_SURFACE('',#307,0.375000000000001);
#211=FACE_OUTER_BOUND('',#308,.T.);
#212=PLANE('',#309);
#213=FACE_OUTER_BOUND('',#310,.T.);
#214=CONICAL_SURFACE('',#311,0.288397459621557,0.523598775598299);
#215=FACE_OUTER_BOUND('',#312,.T.);
#216=PLANE('',#313);
#217=FACE_OUTER_BOUND('',#314,.T.);
#218=PLANE('',#315);
#219=EDGE_LOOP('',(#316,#317,#318,#319));
#220=AXIS2_PLACEMENT_3D('',#320,#321,#322);
#221=EDGE_LOOP('',(#323,#324,#325,#326));
#222=AXIS2_PLACEMENT_3D('',#327,#328,#329);
#223=EDGE_LOOP('',(#330,#331,#332,#333));
#224=AXIS2_PLACEMENT_3D('',#334,#335,#336);
#225=EDGE_LOOP('',(#337,#338,#339,#340));
#226=AXIS2_PLACEMENT_3D('',#341,#342,#343);
#227=EDGE_LOOP('',(#344,#345,#346,#347,#348,#349,#350,#351));
#228=AXIS2_PLACEMENT_3D('',#352,#353,#354);
#229=EDGE_LOOP('',(#355,#356,#357,#358));
#230=AXIS2_PLACEMENT_3D('',#359,#360,#361);
#231=EDGE_LOOP('',(#362,#363,#364,#365));
#232=AXIS2_PLACEMENT_3D('',#366,#367,#368);
#233=EDGE_LOOP('',(#369,#370,#371,#372));
#234=AXIS2_PLACEMENT_3D('',#373,#374,#375);
#235=EDGE_LOOP('',(#376,#377,#378,#379));
#236=AXIS2_PLACEMENT_3D('',#380,#381,#382);
#237=EDGE_LOOP('',(#383,#384,#385,#386,#387,#388));
#238=AXIS2_PLACEMENT_3D('',#389,#390,#391);
#239=EDGE_LOOP('',(#392,#393,#394,#395));
#240=AXIS2_PLACEMENT_3D('',#396,#397,#398);
#241=EDGE_LOOP('',(#399,#400,#401,#402));
#242=AXIS2_PLACEMENT_3D('',#403,#404,#405);
#243=EDGE_LOOP('',(#406,#407,#408,#409));
#244=AXIS2_PLACEMENT_3D('',#410,#411,#412);
#245=EDGE_LOOP('',(#413,#414,#415,#416,#417,#418,#419,#420));
#246=EDGE_LOOP('',(#421,#422));
#247=EDGE_LOOP('',(#423,#424));
#248=EDGE_LOOP('',(#425,#426));
#249=EDGE_LOOP('',(#427,#428));
#250=EDGE_LOOP('',(#429,#430));
#251=AXIS2_PLACEMENT_3D('',#431,#432,#433);
#252=EDGE_LOOP('',(#434,#435,#436,#437));
#253=AXIS2_PLACEMENT_3D('',#438,#439,#440);
#254=EDGE_LOOP('',(#441,#442));
#255=AXIS2_PLACEMENT_3D('',#443,#444,#445);
#256=EDGE_LOOP('',(#446,#447,#448,#449));
#257=AXIS2_PLACEMENT_3D('',#450,#451,#452);
#258=EDGE_LOOP('',(#453,#454));
#259=AXIS2_PLACEMENT_3D('',#455,#456,#457);
#260=EDGE_LOOP('',(#458,#459));
#261=AXIS2_PLACEMENT_3D('',#460,#461,#462);
#262=EDGE_LOOP('',(#463,#464));
#263=AXIS2_PLACEMENT_3D('',#465,#466,#467);
#264=EDGE_LOOP('',(#468,#469,#470,#471));
#265=AXIS2_PLACEMENT_3D('',#472,#473,#474);
#266=EDGE_LOOP('',(#475,#476,#477,#478,#479,#480));
#267=AXIS2_PLACEMENT_3D('',#481,#482,#483);
#268=EDGE_LOOP('',(#484,#485,#486,#487,#488));
#269=AXIS2_PLACEMENT_3D('',#489,#490,#491);
#270=EDGE_LOOP('',(#492,#493,#494,#495));
#271=AXIS2_PLACEMENT_3D('',#496,#497,#498);
#272=EDGE_LOOP('',(#499,#500));
#273=AXIS2_PLACEMENT_3D('',#501,#502,#503);
#274=EDGE_LOOP('',(#504,#505,#506,#507));
#275=AXIS2_PLACEMENT_3D('',#508,#509,#510);
#276=EDGE_LOOP('',(#511,#512,#513,#514));
#277=AXIS2_PLACEMENT_3D('',#515,#516,#517);
#278=EDGE_LOOP('',(#518,#519));
#279=AXIS2_PLACEMENT_3D('',#520,#521,#522);
#280=EDGE_LOOP('',(#523,#524,#525,#526));
#281=AXIS2_PLACEMENT_3D('',#527,#528,#529);
#282=EDGE_LOOP('',(#530,#531,#532,#533));
#283=AXIS2_PLACEMENT_3D('',#534,#535,#536);
#284=EDGE_LOOP('',(#537,#538));
#285=AXIS2_PLACEMENT_3D('',#539,#540,#541);
#286=EDGE_LOOP('',(#542,#543,#544,#545));
#287=AXIS2_PLACEMENT_3D('',#546,#547,#548);
#288=EDGE_LOOP('',(#549,#550,#551,#552,#553,#554,#555,#556,#557));
#289=AXIS2_PLACEMENT_3D('',#558,#559,#560);
#290=EDGE_LOOP('',(#561,#562,#563,#564,#565,#566));
#291=AXIS2_PLACEMENT_3D('',#567,#568,#569);
#292=EDGE_LOOP('',(#570,#571,#572,#573,#574));
#293=AXIS2_PLACEMENT_3D('',#575,#576,#577);
#294=EDGE_LOOP('',(#578,#579,#580,#581));
#295=AXIS2_PLACEMENT_3D('',#582,#583,#584);
#296=EDGE_LOOP('',(#585,#586,#587,#588,#589,#590,#591));
#297=AXIS2_PLACEMENT_3D('',#592,#593,#594);
#298=EDGE_LOOP('',(#595,#596,#597));
#299=AXIS2_PLACEMENT_3D('',#598,#599,#600);
#300=EDGE_LOOP('',(#601,#602,#603,#604));
#301=AXIS2_PLACEMENT_3D('',#605,#606,#607);
#302=EDGE_LOOP('',(#608,#609));
#303=AXIS2_PLACEMENT_3D('',#610,#611,#612);
#304=EDGE_LOOP('',(#613,#614,#615,#616));
#305=AXIS2_PLACEMENT_3D('',#617,#618,#619);
#306=EDGE_LOOP('',(#620,#621,#622,#623));
#307=AXIS2_PLACEMENT_3D('',#624,#625,#626);
#308=EDGE_LOOP('',(#627,#628));
#309=AXIS2_PLACEMENT_3D('',#629,#630,#631);
#310=EDGE_LOOP('',(#632,#633,#634,#635));
#311=AXIS2_PLACEMENT_3D('',#636,#637,#638);
#312=EDGE_LOOP('',(#639,#640,#641,#642));
#313=AXIS2_PLACEMENT_3D('',#643,#644,#645);
#314=EDGE_LOOP('',(#646,#647,#648));
#315=AXIS2_PLACEMENT_3D('',#649,#650,#651);
#316=ORIENTED_EDGE('',*,*,#652,.F.);
#317=ORIENTED_EDGE('',*,*,#653,.T.);
#318=ORIENTED_EDGE('',*,*,#654,.F.);
#319=ORIENTED_EDGE('',*,*,#655,.T.);
#320=CARTESIAN_POINT('',(-11.51,-6.35,-2.54000087525133));
#321=DIRECTION('',(-1.13380268912512E-16,1.0,6.42825966368783E-16));
#322=DIRECTION('',(-0.48171210335396,-6.17944026385394E-16,0.876329532471834));
#323=ORIENTED_EDGE('',*,*,#656,.F.);
#324=ORIENTED_EDGE('',*,*,#657,.F.);
#325=ORIENTED_EDGE('',*,*,#658,.F.);
#326=ORIENTED_EDGE('',*,*,#659,.T.);
#327=CARTESIAN_POINT('',(-11.51,-4.9,-2.54000087525133));
#328=DIRECTION('',(1.13380268912512E-16,-1.0,-6.42825966368783E-16));
#329=DIRECTION('',(0.48171210335396,6.17944026385394E-16,-0.876329532471834));
#330=ORIENTED_EDGE('',*,*,#660,.F.);
#331=ORIENTED_EDGE('',*,*,#661,.T.);
#332=ORIENTED_EDGE('',*,*,#662,.F.);
#333=ORIENTED_EDGE('',*,*,#663,.T.);
#334=CARTESIAN_POINT('',(-11.51,-6.35,2.53999912474866));
#335=DIRECTION('',(-1.13380268912512E-16,1.0,6.42825966368783E-16));
#336=DIRECTION('',(-0.48171210335396,-6.17944026385394E-16,0.876329532471834));
#337=ORIENTED_EDGE('',*,*,#664,.F.);
#338=ORIENTED_EDGE('',*,*,#665,.F.);
#339=ORIENTED_EDGE('',*,*,#666,.F.);
#340=ORIENTED_EDGE('',*,*,#667,.T.);
#341=CARTESIAN_POINT('',(-11.51,-4.9,2.53999912474867));
#342=DIRECTION('',(1.13380268912512E-16,-1.0,-6.42825966368783E-16));
#343=DIRECTION('',(0.48171210335396,6.17944026385394E-16,-0.876329532471834));
#344=ORIENTED_EDGE('',*,*,#668,.F.);
#345=ORIENTED_EDGE('',*,*,#669,.F.);
#346=ORIENTED_EDGE('',*,*,#670,.T.);
#347=ORIENTED_EDGE('',*,*,#671,.T.);
#348=ORIENTED_EDGE('',*,*,#672,.F.);
#349=ORIENTED_EDGE('',*,*,#673,.T.);
#350=ORIENTED_EDGE('',*,*,#674,.F.);
#351=ORIENTED_EDGE('',*,*,#675,.T.);
#352=CARTESIAN_POINT('',(-14.05,2.72512626584708,-8.75251334901552E-07));
#353=DIRECTION('',(1.15195807159796E-17,-1.0,1.14017487469777E-21));
#354=DIRECTION('',(-0.707106781186548,-8.14476741530933E-18,0.707106781186548));
#355=ORIENTED_EDGE('',*,*,#676,.F.);
#356=ORIENTED_EDGE('',*,*,#677,.T.);
#357=ORIENTED_EDGE('',*,*,#678,.F.);
#358=ORIENTED_EDGE('',*,*,#679,.T.);
#359=CARTESIAN_POINT('',(-16.59,-6.35,2.53999912474866));
#360=DIRECTION('',(-1.13380268912512E-16,1.0,6.42825966368783E-16));
#361=DIRECTION('',(-0.48171210335396,-6.17944026385394E-16,0.876329532471834));
#362=ORIENTED_EDGE('',*,*,#680,.F.);
#363=ORIENTED_EDGE('',*,*,#681,.F.);
#364=ORIENTED_EDGE('',*,*,#682,.F.);
#365=ORIENTED_EDGE('',*,*,#683,.T.);
#366=CARTESIAN_POINT('',(-16.59,-4.9,2.53999912474866));
#367=DIRECTION('',(1.13380268912512E-16,-1.0,-6.42825966368783E-16));
#368=DIRECTION('',(0.48171210335396,6.17944026385394E-16,-0.876329532471834));
#369=ORIENTED_EDGE('',*,*,#684,.F.);
#370=ORIENTED_EDGE('',*,*,#685,.T.);
#371=ORIENTED_EDGE('',*,*,#686,.F.);
#372=ORIENTED_EDGE('',*,*,#687,.T.);
#373=CARTESIAN_POINT('',(-14.05,-2.23982312222434,-8.75251334901552E-07));
#374=DIRECTION('',(1.45115300201241E-15,-1.0,1.2325951644078E-32));
#375=DIRECTION('',(-1.0,-1.45115300201241E-15,2.15318448671839E-31));
#376=ORIENTED_EDGE('',*,*,#688,.F.);
#377=ORIENTED_EDGE('',*,*,#689,.T.);
#378=ORIENTED_EDGE('',*,*,#690,.F.);
#379=ORIENTED_EDGE('',*,*,#685,.F.);
#380=CARTESIAN_POINT('',(-14.05,-6.16482312222434,-8.75251334901552E-07));
#381=DIRECTION('',(-1.45115300201241E-15,1.0,-1.2325951644078E-32));
#382=DIRECTION('',(-1.0,-1.45115300201241E-15,2.15318448671839E-31));
#383=ORIENTED_EDGE('',*,*,#691,.F.);
#384=ORIENTED_EDGE('',*,*,#692,.F.);
#385=ORIENTED_EDGE('',*,*,#693,.T.);
#386=ORIENTED_EDGE('',*,*,#694,.F.);
#387=ORIENTED_EDGE('',*,*,#695,.F.);
#388=ORIENTED_EDGE('',*,*,#696,.F.);
#389=CARTESIAN_POINT('',(-5.275,-6.46001186550229E-16,-8.75251334901552E-07));
#390=DIRECTION('',(-1.0,1.23259516440783E-32,-7.70371977754894E-34));
#391=DIRECTION('',(1.23259516440783E-32,1.0,9.4955677457598E-66));
#392=ORIENTED_EDGE('',*,*,#697,.F.);
#393=ORIENTED_EDGE('',*,*,#698,.T.);
#394=ORIENTED_EDGE('',*,*,#699,.T.);
#395=ORIENTED_EDGE('',*,*,#696,.T.);
#396=CARTESIAN_POINT('',(-0.1,-1.22464679914736E-17,-8.75251334901552E-07));
#397=DIRECTION('',(-1.0,-5.93768145041141E-17,-7.70371977754894E-34));
#398=DIRECTION('',(5.93768145041141E-17,-1.0,4.57422340223199E-50));
#399=ORIENTED_EDGE('',*,*,#700,.F.);
#400=ORIENTED_EDGE('',*,*,#701,.F.);
#401=ORIENTED_EDGE('',*,*,#702,.F.);
#402=ORIENTED_EDGE('',*,*,#703,.T.);
#403=CARTESIAN_POINT('',(-16.59,-4.9,-2.54000087525133));
#404=DIRECTION('',(1.13380268912512E-16,-1.0,-6.42825966368783E-16));
#405=DIRECTION('',(0.48171210335396,6.17944026385394E-16,-0.876329532471834));
#406=ORIENTED_EDGE('',*,*,#704,.F.);
#407=ORIENTED_EDGE('',*,*,#705,.T.);
#408=ORIENTED_EDGE('',*,*,#706,.F.);
#409=ORIENTED_EDGE('',*,*,#707,.T.);
#410=CARTESIAN_POINT('',(-16.59,-6.35,-2.54000087525134));
#411=DIRECTION('',(-1.13380268912512E-16,1.0,6.42825966368783E-16));
#412=DIRECTION('',(-0.48171210335396,-6.17944026385394E-16,0.876329532471834));
#413=ORIENTED_EDGE('',*,*,#708,.T.);
#414=ORIENTED_EDGE('',*,*,#709,.T.);
#415=ORIENTED_EDGE('',*,*,#710,.T.);
#416=ORIENTED_EDGE('',*,*,#711,.T.);
#417=ORIENTED_EDGE('',*,*,#712,.T.);
#418=ORIENTED_EDGE('',*,*,#713,.T.);
#419=ORIENTED_EDGE('',*,*,#714,.T.);
#420=ORIENTED_EDGE('',*,*,#715,.T.);
#421=ORIENTED_EDGE('',*,*,#659,.F.);
#422=ORIENTED_EDGE('',*,*,#716,.F.);
#423=ORIENTED_EDGE('',*,*,#703,.F.);
#424=ORIENTED_EDGE('',*,*,#717,.F.);
#425=ORIENTED_EDGE('',*,*,#667,.F.);
#426=ORIENTED_EDGE('',*,*,#718,.F.);
#427=ORIENTED_EDGE('',*,*,#683,.F.);
#428=ORIENTED_EDGE('',*,*,#719,.F.);
#429=ORIENTED_EDGE('',*,*,#687,.F.);
#430=ORIENTED_EDGE('',*,*,#720,.F.);
#431=CARTESIAN_POINT('',(-10.55,-3.5,-8.75251334901552E-07));
#432=DIRECTION('',(-2.52897331594853E-19,-1.0,-4.31674304624697E-37));
#433=DIRECTION('',(-1.0,2.52897331594853E-19,0.0));
#434=ORIENTED_EDGE('',*,*,#704,.T.);
#435=ORIENTED_EDGE('',*,*,#701,.T.);
#436=ORIENTED_EDGE('',*,*,#706,.T.);
#437=ORIENTED_EDGE('',*,*,#721,.T.);
#438=CARTESIAN_POINT('',(-16.59,-6.35,-2.54000087525134));
#439=DIRECTION('',(-1.13380268912512E-16,1.0,6.42825966368783E-16));
#440=DIRECTION('',(-0.48171210335396,-6.17944026385394E-16,0.876329532471834));
#441=ORIENTED_EDGE('',*,*,#721,.F.);
#442=ORIENTED_EDGE('',*,*,#705,.F.);
#443=CARTESIAN_POINT('',(-16.4996789806211,-6.5,-2.70431266258981));
#444=DIRECTION('',(1.13380268912512E-16,-1.0,-6.42825966368783E-16));
#445=DIRECTION('',(0.0,6.42825966368783E-16,-1.0));
#446=ORIENTED_EDGE('',*,*,#700,.T.);
#447=ORIENTED_EDGE('',*,*,#717,.T.);
#448=ORIENTED_EDGE('',*,*,#702,.T.);
#449=ORIENTED_EDGE('',*,*,#707,.F.);
#450=CARTESIAN_POINT('',(-16.59,-4.9,-2.54000087525133));
#451=DIRECTION('',(1.13380268912512E-16,-1.0,-6.42825966368783E-16));
#452=DIRECTION('',(0.48171210335396,6.17944026385394E-16,-0.876329532471834));
#453=ORIENTED_EDGE('',*,*,#722,.T.);
#454=ORIENTED_EDGE('',*,*,#723,.F.);
#455=CARTESIAN_POINT('',(-10.55,3.2,-8.75251334901552E-07));
#456=DIRECTION('',(-1.0,-1.22464679914735E-16,-7.70371977754894E-34));
#457=DIRECTION('',(-1.22464679914735E-16,1.0,0.0));
#458=ORIENTED_EDGE('',*,*,#724,.T.);
#459=ORIENTED_EDGE('',*,*,#693,.F.);
#460=CARTESIAN_POINT('',(-10.55,3.2,-8.75251334901552E-07));
#461=DIRECTION('',(-1.0,-1.22464679914735E-16,-7.70371977754894E-34));
#462=DIRECTION('',(-1.22464679914735E-16,1.0,0.0));
#463=ORIENTED_EDGE('',*,*,#725,.F.);
#464=ORIENTED_EDGE('',*,*,#698,.F.);
#465=CARTESIAN_POINT('',(2.09541177949331E-32,1.7,-8.75251334901552E-07));
#466=DIRECTION('',(1.0,1.22464679914735E-16,7.70371977754894E-34));
#467=DIRECTION('',(-1.22464679914735E-16,1.0,0.0));
#468=ORIENTED_EDGE('',*,*,#697,.T.);
#469=ORIENTED_EDGE('',*,*,#726,.T.);
#470=ORIENTED_EDGE('',*,*,#699,.F.);
#471=ORIENTED_EDGE('',*,*,#725,.T.);
#472=CARTESIAN_POINT('',(-0.1,-1.22464679914736E-17,-8.75251334901552E-07));
#473=DIRECTION('',(-1.0,-5.93768145041141E-17,-7.70371977754894E-34));
#474=DIRECTION('',(5.93768145041141E-17,-1.0,4.57422340223199E-50));
#475=ORIENTED_EDGE('',*,*,#691,.T.);
#476=ORIENTED_EDGE('',*,*,#726,.F.);
#477=ORIENTED_EDGE('',*,*,#695,.T.);
#478=ORIENTED_EDGE('',*,*,#727,.F.);
#479=ORIENTED_EDGE('',*,*,#723,.T.);
#480=ORIENTED_EDGE('',*,*,#728,.F.);
#481=CARTESIAN_POINT('',(-5.275,-6.46001186550229E-16,-8.75251334901552E-07));
#482=DIRECTION('',(-1.0,1.23259516440783E-32,-7.70371977754894E-34));
#483=DIRECTION('',(1.23259516440783E-32,1.0,9.4955677457598E-66));
#484=ORIENTED_EDGE('',*,*,#727,.T.);
#485=ORIENTED_EDGE('',*,*,#694,.T.);
#486=ORIENTED_EDGE('',*,*,#729,.T.);
#487=ORIENTED_EDGE('',*,*,#715,.F.);
#488=ORIENTED_EDGE('',*,*,#730,.T.);
#489=CARTESIAN_POINT('',(-10.55,3.5,-8.75251334901552E-07));
#490=DIRECTION('',(1.0,1.15207208908543E-17,9.62964972193618E-34));
#491=DIRECTION('',(-1.15207208908543E-17,1.0,0.0));
#492=ORIENTED_EDGE('',*,*,#688,.T.);
#493=ORIENTED_EDGE('',*,*,#731,.F.);
#494=ORIENTED_EDGE('',*,*,#690,.T.);
#495=ORIENTED_EDGE('',*,*,#732,.T.);
#496=CARTESIAN_POINT('',(-14.05,-6.16482312222434,-8.75251334901552E-07));
#497=DIRECTION('',(-1.45115300201241E-15,1.0,-1.2325951644078E-32));
#498=DIRECTION('',(-1.0,-1.45115300201241E-15,2.15318448671839E-31));
#499=ORIENTED_EDGE('',*,*,#689,.F.);
#500=ORIENTED_EDGE('',*,*,#732,.F.);
#501=CARTESIAN_POINT('',(-14.1383974596216,-6.31482312222434,-8.75251334901552E-07));
#502=DIRECTION('',(1.75731470179925E-15,-1.0,1.23259516440779E-32));
#503=DIRECTION('',(0.0,-1.23259516440779E-32,-1.0));
#504=ORIENTED_EDGE('',*,*,#684,.T.);
#505=ORIENTED_EDGE('',*,*,#720,.T.);
#506=ORIENTED_EDGE('',*,*,#686,.T.);
#507=ORIENTED_EDGE('',*,*,#731,.T.);
#508=CARTESIAN_POINT('',(-14.05,-2.23982312222434,-8.75251334901552E-07));
#509=DIRECTION('',(1.45115300201241E-15,-1.0,1.2325951644078E-32));
#510=DIRECTION('',(-1.0,-1.45115300201241E-15,2.15318448671839E-31));
#511=ORIENTED_EDGE('',*,*,#680,.T.);
#512=ORIENTED_EDGE('',*,*,#719,.T.);
#513=ORIENTED_EDGE('',*,*,#682,.T.);
#514=ORIENTED_EDGE('',*,*,#679,.F.);
#515=CARTESIAN_POINT('',(-16.59,-4.9,2.53999912474866));
#516=DIRECTION('',(1.13380268912512E-16,-1.0,-6.42825966368783E-16));
#517=DIRECTION('',(0.48171210335396,6.17944026385394E-16,-0.876329532471834));
#518=ORIENTED_EDGE('',*,*,#733,.F.);
#519=ORIENTED_EDGE('',*,*,#677,.F.);
#520=CARTESIAN_POINT('',(-16.4996789806211,-6.5,2.37568733741019));
#521=DIRECTION('',(1.13380268912512E-16,-1.0,-6.42825966368783E-16));
#522=DIRECTION('',(0.0,6.42825966368783E-16,-1.0));
#523=ORIENTED_EDGE('',*,*,#676,.T.);
#524=ORIENTED_EDGE('',*,*,#681,.T.);
#525=ORIENTED_EDGE('',*,*,#678,.T.);
#526=ORIENTED_EDGE('',*,*,#733,.T.);
#527=CARTESIAN_POINT('',(-16.59,-6.35,2.53999912474866));
#528=DIRECTION('',(-1.13380268912512E-16,1.0,6.42825966368783E-16));
#529=DIRECTION('',(-0.48171210335396,-6.17944026385394E-16,0.876329532471834));
#530=ORIENTED_EDGE('',*,*,#734,.T.);
#531=ORIENTED_EDGE('',*,*,#735,.T.);
#532=ORIENTED_EDGE('',*,*,#709,.F.);
#533=ORIENTED_EDGE('',*,*,#736,.T.);
#534=CARTESIAN_POINT('',(-14.05,-1.90939023497535E-15,3.49999912474867));
#535=DIRECTION('',(-9.62964972193618E-34,-4.31674304624697E-37,1.0));
#536=DIRECTION('',(1.0,0.0,9.62964972193618E-34));
#537=ORIENTED_EDGE('',*,*,#737,.T.);
#538=ORIENTED_EDGE('',*,*,#669,.T.);
#539=CARTESIAN_POINT('',(-17.55,3.5,-8.75251334901552E-07));
#540=DIRECTION('',(2.52897331594853E-19,1.0,4.31674304624697E-37));
#541=DIRECTION('',(1.0,-2.52897331594853E-19,0.0));
#542=ORIENTED_EDGE('',*,*,#674,.T.);
#543=ORIENTED_EDGE('',*,*,#738,.T.);
#544=ORIENTED_EDGE('',*,*,#711,.F.);
#545=ORIENTED_EDGE('',*,*,#739,.T.);
#546=CARTESIAN_POINT('',(-17.55,-3.5,-8.75251334901552E-07));
#547=DIRECTION('',(-1.0,2.52897331594853E-19,-9.62964972193618E-34));
#548=DIRECTION('',(-9.62964972193618E-34,0.0,1.0));
#549=ORIENTED_EDGE('',*,*,#668,.T.);
#550=ORIENTED_EDGE('',*,*,#740,.T.);
#551=ORIENTED_EDGE('',*,*,#734,.F.);
#552=ORIENTED_EDGE('',*,*,#741,.T.);
#553=ORIENTED_EDGE('',*,*,#742,.F.);
#554=ORIENTED_EDGE('',*,*,#743,.F.);
#555=ORIENTED_EDGE('',*,*,#744,.T.);
#556=ORIENTED_EDGE('',*,*,#670,.F.);
#557=ORIENTED_EDGE('',*,*,#737,.F.);
#558=CARTESIAN_POINT('',(-14.05,2.72512626584708,-8.75251334901552E-07));
#559=DIRECTION('',(1.15195807159796E-17,-1.0,1.14017487469777E-21));
#560=DIRECTION('',(-0.707106781186548,-8.14476741530933E-18,0.707106781186548));
#561=ORIENTED_EDGE('',*,*,#741,.F.);
#562=ORIENTED_EDGE('',*,*,#736,.F.);
#563=ORIENTED_EDGE('',*,*,#708,.F.);
#564=ORIENTED_EDGE('',*,*,#729,.F.);
#565=ORIENTED_EDGE('',*,*,#724,.F.);
#566=ORIENTED_EDGE('',*,*,#745,.F.);
#567=CARTESIAN_POINT('',(-14.05,-3.5,-8.75251334901552E-07));
#568=DIRECTION('',(-2.52897331594853E-19,-1.0,-1.91808324022269E-34));
#569=DIRECTION('',(-0.74468085106383,1.88327800123827E-19,-0.667420729419495));
#570=ORIENTED_EDGE('',*,*,#675,.F.);
#571=ORIENTED_EDGE('',*,*,#739,.F.);
#572=ORIENTED_EDGE('',*,*,#710,.F.);
#573=ORIENTED_EDGE('',*,*,#735,.F.);
#574=ORIENTED_EDGE('',*,*,#740,.F.);
#575=CARTESIAN_POINT('',(-14.05,-3.5,-8.75251334901552E-07));
#576=DIRECTION('',(-2.52897331594853E-19,-1.0,2.44119685119251E-34));
#577=DIRECTION('',(0.667420729419495,-1.68788921521281E-19,-0.74468085106383));
#578=ORIENTED_EDGE('',*,*,#673,.F.);
#579=ORIENTED_EDGE('',*,*,#746,.F.);
#580=ORIENTED_EDGE('',*,*,#712,.F.);
#581=ORIENTED_EDGE('',*,*,#738,.F.);
#582=CARTESIAN_POINT('',(-14.05,-3.5,-8.75251334901552E-07));
#583=DIRECTION('',(-2.52897331594853E-19,-1.0,-1.91808324022269E-34));
#584=DIRECTION('',(0.74468085106383,-1.88327800123827E-19,0.667420729419495));
#585=ORIENTED_EDGE('',*,*,#744,.F.);
#586=ORIENTED_EDGE('',*,*,#747,.F.);
#587=ORIENTED_EDGE('',*,*,#722,.F.);
#588=ORIENTED_EDGE('',*,*,#730,.F.);
#589=ORIENTED_EDGE('',*,*,#714,.F.);
#590=ORIENTED_EDGE('',*,*,#748,.F.);
#591=ORIENTED_EDGE('',*,*,#671,.F.);
#592=CARTESIAN_POINT('',(-14.05,-3.5,-8.75251334901552E-07));
#593=DIRECTION('',(-2.52897331594853E-19,-1.0,4.18490888775859E-34));
#594=DIRECTION('',(-0.667420729419494,1.68788921521281E-19,0.74468085106383));
#595=ORIENTED_EDGE('',*,*,#692,.T.);
#596=ORIENTED_EDGE('',*,*,#742,.T.);
#597=ORIENTED_EDGE('',*,*,#745,.T.);
#598=CARTESIAN_POINT('',(-10.55,3.5,-8.75251334901552E-07));
#599=DIRECTION('',(1.0,1.15207208908543E-17,9.62964972193618E-34));
#600=DIRECTION('',(-1.15207208908543E-17,1.0,0.0));
#601=ORIENTED_EDGE('',*,*,#664,.T.);
#602=ORIENTED_EDGE('',*,*,#718,.T.);
#603=ORIENTED_EDGE('',*,*,#666,.T.);
#604=ORIENTED_EDGE('',*,*,#663,.F.);
#605=CARTESIAN_POINT('',(-11.51,-4.9,2.53999912474867));
#606=DIRECTION('',(1.13380268912512E-16,-1.0,-6.42825966368783E-16));
#607=DIRECTION('',(0.48171210335396,6.17944026385394E-16,-0.876329532471834));
#608=ORIENTED_EDGE('',*,*,#749,.F.);
#609=ORIENTED_EDGE('',*,*,#661,.F.);
#610=CARTESIAN_POINT('',(-11.4196789806211,-6.5,2.3756873374102));
#611=DIRECTION('',(1.13380268912512E-16,-1.0,-6.42825966368783E-16));
#612=DIRECTION('',(0.0,6.42825966368783E-16,-1.0));
#613=ORIENTED_EDGE('',*,*,#660,.T.);
#614=ORIENTED_EDGE('',*,*,#665,.T.);
#615=ORIENTED_EDGE('',*,*,#662,.T.);
#616=ORIENTED_EDGE('',*,*,#749,.T.);
#617=CARTESIAN_POINT('',(-11.51,-6.35,2.53999912474866));
#618=DIRECTION('',(-1.13380268912512E-16,1.0,6.42825966368783E-16));
#619=DIRECTION('',(-0.48171210335396,-6.17944026385394E-16,0.876329532471834));
#620=ORIENTED_EDGE('',*,*,#656,.T.);
#621=ORIENTED_EDGE('',*,*,#716,.T.);
#622=ORIENTED_EDGE('',*,*,#658,.T.);
#623=ORIENTED_EDGE('',*,*,#655,.F.);
#624=CARTESIAN_POINT('',(-11.51,-4.9,-2.54000087525133));
#625=DIRECTION('',(1.13380268912512E-16,-1.0,-6.42825966368783E-16));
#626=DIRECTION('',(0.48171210335396,6.17944026385394E-16,-0.876329532471834));
#627=ORIENTED_EDGE('',*,*,#750,.F.);
#628=ORIENTED_EDGE('',*,*,#653,.F.);
#629=CARTESIAN_POINT('',(-11.4196789806211,-6.5,-2.7043126625898));
#630=DIRECTION('',(1.13380268912512E-16,-1.0,-6.42825966368783E-16));
#631=DIRECTION('',(0.0,6.42825966368783E-16,-1.0));
#632=ORIENTED_EDGE('',*,*,#652,.T.);
#633=ORIENTED_EDGE('',*,*,#657,.T.);
#634=ORIENTED_EDGE('',*,*,#654,.T.);
#635=ORIENTED_EDGE('',*,*,#750,.T.);
#636=CARTESIAN_POINT('',(-11.51,-6.35,-2.54000087525133));
#637=DIRECTION('',(-1.13380268912512E-16,1.0,6.42825966368783E-16));
#638=DIRECTION('',(-0.48171210335396,-6.17944026385394E-16,0.876329532471834));
#639=ORIENTED_EDGE('',*,*,#672,.T.);
#640=ORIENTED_EDGE('',*,*,#748,.T.);
#641=ORIENTED_EDGE('',*,*,#713,.F.);
#642=ORIENTED_EDGE('',*,*,#746,.T.);
#643=CARTESIAN_POINT('',(-14.05,-2.01031960085037E-15,-3.50000087525133));
#644=DIRECTION('',(-9.62964972193618E-34,-4.31674304624697E-37,1.0));
#645=DIRECTION('',(1.0,0.0,9.62964972193618E-34));
#646=ORIENTED_EDGE('',*,*,#743,.T.);
#647=ORIENTED_EDGE('',*,*,#728,.T.);
#648=ORIENTED_EDGE('',*,*,#747,.T.);
#649=CARTESIAN_POINT('',(-10.55,3.5,-8.75251334901552E-07));
#650=DIRECTION('',(1.0,1.15207208908543E-17,9.62964972193618E-34));
#651=DIRECTION('',(-1.15207208908543E-17,1.0,0.0));
#652=EDGE_CURVE('',#751,#752,#753,.T.);
#653=EDGE_CURVE('',#751,#754,#755,.T.);
#654=EDGE_CURVE('',#756,#754,#757,.T.);
#655=EDGE_CURVE('',#756,#752,#758,.T.);
#656=EDGE_CURVE('',#756,#759,#760,.T.);
#657=EDGE_CURVE('',#752,#756,#761,.T.);
#658=EDGE_CURVE('',#762,#752,#763,.T.);
#659=EDGE_CURVE('',#762,#759,#764,.T.);
#660=EDGE_CURVE('',#765,#766,#767,.T.);
#661=EDGE_CURVE('',#765,#768,#769,.T.);
#662=EDGE_CURVE('',#770,#768,#771,.T.);
#663=EDGE_CURVE('',#770,#766,#772,.T.);
#664=EDGE_CURVE('',#770,#773,#774,.T.);
#665=EDGE_CURVE('',#766,#770,#775,.T.);
#666=EDGE_CURVE('',#776,#766,#777,.T.);
#667=EDGE_CURVE('',#776,#773,#778,.T.);
#668=EDGE_CURVE('',#779,#780,#781,.T.);
#669=EDGE_CURVE('',#782,#779,#783,.T.);
#670=EDGE_CURVE('',#782,#784,#785,.T.);
#671=EDGE_CURVE('',#784,#786,#787,.T.);
#672=EDGE_CURVE('',#788,#786,#789,.T.);
#673=EDGE_CURVE('',#788,#790,#791,.T.);
#674=EDGE_CURVE('',#792,#790,#793,.T.);
#675=EDGE_CURVE('',#792,#780,#794,.T.);
#676=EDGE_CURVE('',#795,#796,#797,.T.);
#677=EDGE_CURVE('',#795,#798,#799,.T.);
#678=EDGE_CURVE('',#800,#798,#801,.T.);
#679=EDGE_CURVE('',#800,#796,#802,.T.);
#680=EDGE_CURVE('',#800,#803,#804,.T.);
#681=EDGE_CURVE('',#796,#800,#805,.T.);
#682=EDGE_CURVE('',#806,#796,#807,.T.);
#683=EDGE_CURVE('',#806,#803,#808,.T.);
#684=EDGE_CURVE('',#809,#810,#811,.T.);
#685=EDGE_CURVE('',#809,#812,#813,.T.);
#686=EDGE_CURVE('',#814,#812,#815,.T.);
#687=EDGE_CURVE('',#814,#810,#816,.T.);
#688=EDGE_CURVE('',#817,#809,#818,.T.);
#689=EDGE_CURVE('',#817,#819,#820,.T.);
#690=EDGE_CURVE('',#812,#819,#821,.T.);
#691=EDGE_CURVE('',#822,#823,#824,.T.);
#692=EDGE_CURVE('',#825,#822,#826,.T.);
#693=EDGE_CURVE('',#825,#827,#828,.T.);
#694=EDGE_CURVE('',#829,#827,#830,.T.);
#695=EDGE_CURVE('',#831,#829,#832,.T.);
#696=EDGE_CURVE('',#823,#831,#833,.T.);
#697=EDGE_CURVE('',#834,#831,#835,.T.);
#698=EDGE_CURVE('',#834,#836,#837,.T.);
#699=EDGE_CURVE('',#836,#823,#838,.T.);
#700=EDGE_CURVE('',#839,#840,#841,.T.);
#701=EDGE_CURVE('',#842,#839,#843,.T.);
#702=EDGE_CURVE('',#844,#842,#845,.T.);
#703=EDGE_CURVE('',#844,#840,#846,.T.);
#704=EDGE_CURVE('',#847,#842,#848,.T.);
#705=EDGE_CURVE('',#847,#849,#850,.T.);
#706=EDGE_CURVE('',#839,#849,#851,.T.);
#707=EDGE_CURVE('',#839,#842,#852,.T.);
#708=EDGE_CURVE('',#853,#854,#855,.T.);
#709=EDGE_CURVE('',#854,#856,#857,.T.);
#710=EDGE_CURVE('',#856,#858,#859,.T.);
#711=EDGE_CURVE('',#858,#860,#861,.T.);
#712=EDGE_CURVE('',#860,#862,#863,.T.);
#713=EDGE_CURVE('',#862,#864,#865,.T.);
#714=EDGE_CURVE('',#864,#866,#867,.T.);
#715=EDGE_CURVE('',#866,#853,#868,.T.);
#716=EDGE_CURVE('',#759,#762,#869,.T.);
#717=EDGE_CURVE('',#840,#844,#870,.T.);
#718=EDGE_CURVE('',#773,#776,#871,.T.);
#719=EDGE_CURVE('',#803,#806,#872,.T.);
#720=EDGE_CURVE('',#810,#814,#873,.T.);
#721=EDGE_CURVE('',#849,#847,#874,.T.);
#722=EDGE_CURVE('',#875,#876,#877,.T.);
#723=EDGE_CURVE('',#875,#876,#878,.T.);
#724=EDGE_CURVE('',#825,#827,#879,.T.);
#725=EDGE_CURVE('',#836,#834,#880,.T.);
#726=EDGE_CURVE('',#831,#823,#881,.T.);
#727=EDGE_CURVE('',#875,#829,#882,.T.);
#728=EDGE_CURVE('',#822,#876,#883,.T.);
#729=EDGE_CURVE('',#827,#853,#884,.T.);
#730=EDGE_CURVE('',#866,#875,#885,.T.);
#731=EDGE_CURVE('',#812,#809,#886,.T.);
#732=EDGE_CURVE('',#819,#817,#887,.T.);
#733=EDGE_CURVE('',#798,#795,#888,.T.);
#734=EDGE_CURVE('',#889,#890,#891,.T.);
#735=EDGE_CURVE('',#890,#856,#892,.T.);
#736=EDGE_CURVE('',#854,#889,#893,.T.);
#737=EDGE_CURVE('',#779,#782,#894,.T.);
#738=EDGE_CURVE('',#790,#860,#895,.T.);
#739=EDGE_CURVE('',#858,#792,#896,.T.);
#740=EDGE_CURVE('',#780,#890,#897,.T.);
#741=EDGE_CURVE('',#889,#898,#899,.T.);
#742=EDGE_CURVE('',#822,#898,#900,.T.);
#743=EDGE_CURVE('',#901,#822,#902,.T.);
#744=EDGE_CURVE('',#901,#784,#903,.T.);
#745=EDGE_CURVE('',#898,#825,#904,.T.);
#746=EDGE_CURVE('',#862,#788,#905,.T.);
#747=EDGE_CURVE('',#876,#901,#906,.T.);
#748=EDGE_CURVE('',#786,#864,#907,.T.);
#749=EDGE_CURVE('',#768,#765,#908,.T.);
#750=EDGE_CURVE('',#754,#751,#909,.T.);
#751=VERTEX_POINT('',#910);
#752=VERTEX_POINT('',#911);
#753=LINE('',#912,#913);
#754=VERTEX_POINT('',#914);
#755=CIRCLE('',#915,0.201794919243113);
#756=VERTEX_POINT('',#916);
#757=LINE('',#917,#918);
#758=CIRCLE('',#919,0.375000000000001);
#759=VERTEX_POINT('',#920);
#760=LINE('',#921,#922);
#761=CIRCLE('',#923,0.375000000000001);
#762=VERTEX_POINT('',#924);
#763=LINE('',#925,#926);
#764=CIRCLE('',#927,0.375000000000001);
#765=VERTEX_POINT('',#928);
#766=VERTEX_POINT('',#929);
#767=LINE('',#930,#931);
#768=VERTEX_POINT('',#932);
#769=CIRCLE('',#933,0.201794919243113);
#770=VERTEX_POINT('',#934);
#771=LINE('',#935,#936);
#772=CIRCLE('',#937,0.375000000000001);
#773=VERTEX_POINT('',#938);
#774=LINE('',#939,#940);
#775=CIRCLE('',#941,0.375000000000001);
#776=VERTEX_POINT('',#942);
#777=LINE('',#943,#944);
#778=CIRCLE('',#945,0.375000000000001);
#779=VERTEX_POINT('',#946);
#780=VERTEX_POINT('',#947);
#781=LINE('',#948,#949);
#782=VERTEX_POINT('',#950);
#783=CIRCLE('',#951,3.4);
#784=VERTEX_POINT('',#952);
#785=LINE('',#953,#954);
#786=VERTEX_POINT('',#955);
#787=CIRCLE('',#956,4.7);
#788=VERTEX_POINT('',#957);
#789=(B_SPLINE_CURVE(2,(#959,#960,#961),.UNSPECIFIED.,.F.,.F.)B_SPLINE_CURVE_WITH_KNOTS((3,3),(0.0289629394687464,0.728711600736026),.UNSPECIFIED.)RATIONAL_B_SPLINE_CURVE((1.03045700832998,1.38375655404309,1.03045700833004))BOUNDED_CURVE()REPRESENTATION_ITEM('')GEOMETRIC_REPRESENTATION_ITEM()CURVE());
#790=VERTEX_POINT('',#968);
#791=CIRCLE('',#969,4.7);
#792=VERTEX_POINT('',#970);
#793=(B_SPLINE_CURVE(2,(#972,#973,#974),.UNSPECIFIED.,.F.,.F.)B_SPLINE_CURVE_WITH_KNOTS((3,3),(0.0289629394687476,0.72871160073603),.UNSPECIFIED.)RATIONAL_B_SPLINE_CURVE((1.03045700832998,1.38375655404308,1.03045700833004))BOUNDED_CURVE()REPRESENTATION_ITEM('')GEOMETRIC_REPRESENTATION_ITEM()CURVE());
#794=CIRCLE('',#981,4.7);
#795=VERTEX_POINT('',#982);
#796=VERTEX_POINT('',#983);
#797=LINE('',#984,#985);
#798=VERTEX_POINT('',#986);
#799=CIRCLE('',#987,0.201794919243113);
#800=VERTEX_POINT('',#988);
#801=LINE('',#989,#990);
#802=CIRCLE('',#991,0.375000000000001);
#803=VERTEX_POINT('',#992);
#804=LINE('',#993,#994);
#805=CIRCLE('',#995,0.375000000000001);
#806=VERTEX_POINT('',#996);
#807=LINE('',#997,#998);
#808=CIRCLE('',#999,0.375000000000001);
#809=VERTEX_POINT('',#1000);
#810=VERTEX_POINT('',#1001);
#811=LINE('',#1002,#1003);
#812=VERTEX_POINT('',#1004);
#813=CIRCLE('',#1005,0.349999999999998);
#814=VERTEX_POINT('',#1006);
#815=LINE('',#1007,#1008);
#816=CIRCLE('',#1009,0.349999999999998);
#817=VERTEX_POINT('',#1010);
#818=LINE('',#1011,#1012);
#819=VERTEX_POINT('',#1013);
#820=CIRCLE('',#1014,0.176794919243111);
#821=LINE('',#1015,#1016);
#822=VERTEX_POINT('',#1017);
#823=VERTEX_POINT('',#1018);
#824=LINE('',#1019,#1020);
#825=VERTEX_POINT('',#1021);
#826=CIRCLE('',#1022,3.4);
#827=VERTEX_POINT('',#1023);
#828=CIRCLE('',#1024,3.4);
#829=VERTEX_POINT('',#1025);
#830=CIRCLE('',#1026,3.4);
#831=VERTEX_POINT('',#1027);
#832=LINE('',#1028,#1029);
#833=CIRCLE('',#1030,3.4);
#834=VERTEX_POINT('',#1031);
#835=LINE('',#1032,#1033);
#836=VERTEX_POINT('',#1034);
#837=CIRCLE('',#1035,3.2);
#838=LINE('',#1036,#1037);
#839=VERTEX_POINT('',#1038);
#840=VERTEX_POINT('',#1039);
#841=LINE('',#1040,#1041);
#842=VERTEX_POINT('',#1042);
#843=CIRCLE('',#1043,0.375000000000001);
#844=VERTEX_POINT('',#1044);
#845=LINE('',#1045,#1046);
#846=CIRCLE('',#1047,0.375000000000001);
#847=VERTEX_POINT('',#1048);
#848=LINE('',#1049,#1050);
#849=VERTEX_POINT('',#1051);
#850=CIRCLE('',#1052,0.201794919243113);
#851=LINE('',#1053,#1054);
#852=CIRCLE('',#1055,0.375000000000001);
#853=VERTEX_POINT('',#1056);
#854=VERTEX_POINT('',#1057);
#855=CIRCLE('',#1058,4.7);
#856=VERTEX_POINT('',#1059);
#857=LINE('',#1060,#1061);
#858=VERTEX_POINT('',#1062);
#859=CIRCLE('',#1063,4.7);
#860=VERTEX_POINT('',#1064);
#861=LINE('',#1065,#1066);
#862=VERTEX_POINT('',#1067);
#863=CIRCLE('',#1068,4.7);
#864=VERTEX_POINT('',#1069);
#865=LINE('',#1070,#1071);
#866=VERTEX_POINT('',#1072);
#867=CIRCLE('',#1073,4.7);
#868=LINE('',#1074,#1075);
#869=CIRCLE('',#1076,0.375000000000001);
#870=CIRCLE('',#1077,0.375000000000001);
#871=CIRCLE('',#1078,0.375000000000001);
#872=CIRCLE('',#1079,0.375000000000001);
#873=CIRCLE('',#1080,0.349999999999998);
#874=CIRCLE('',#1081,0.201794919243113);
#875=VERTEX_POINT('',#1082);
#876=VERTEX_POINT('',#1083);
#877=LINE('',#1084,#1085);
#878=CIRCLE('',#1086,3.4);
#879=LINE('',#1087,#1088);
#880=CIRCLE('',#1089,3.2);
#881=CIRCLE('',#1090,3.4);
#882=CIRCLE('',#1091,3.4);
#883=CIRCLE('',#1092,3.4);
#884=LINE('',#1093,#1094);
#885=LINE('',#1095,#1096);
#886=CIRCLE('',#1097,0.349999999999998);
#887=CIRCLE('',#1098,0.176794919243111);
#888=CIRCLE('',#1099,0.201794919243113);
#889=VERTEX_POINT('',#1100);
#890=VERTEX_POINT('',#1101);
#891=(B_SPLINE_CURVE(2,(#1103,#1104,#1105),.UNSPECIFIED.,.F.,.F.)B_SPLINE_CURVE_WITH_KNOTS((3,3),(0.0289629394687464,0.728711600735929),.UNSPECIFIED.)RATIONAL_B_SPLINE_CURVE((1.03045700832998,1.38375655404312,1.03045700832998))BOUNDED_CURVE()REPRESENTATION_ITEM('')GEOMETRIC_REPRESENTATION_ITEM()CURVE());
#892=LINE('',#1112,#1113);
#893=LINE('',#1114,#1115);
#894=CIRCLE('',#1116,3.4);
#895=LINE('',#1117,#1118);
#896=LINE('',#1119,#1120);
#897=CIRCLE('',#1121,4.7);
#898=VERTEX_POINT('',#1122);
#899=CIRCLE('',#1123,4.7);
#900=(B_SPLINE_CURVE(2,(#1125,#1126,#1127),.UNSPECIFIED.,.F.,.F.)B_SPLINE_CURVE_WITH_KNOTS((3,3),(0.378837270102338,0.728711600735929),.UNSPECIFIED.)RATIONAL_B_SPLINE_CURVE((1.20710678118655,1.20710678118655,1.03045700832998))BOUNDED_CURVE()REPRESENTATION_ITEM('')GEOMETRIC_REPRESENTATION_ITEM()CURVE());
#901=VERTEX_POINT('',#1134);
#902=(B_SPLINE_CURVE(2,(#1136,#1137,#1138),.UNSPECIFIED.,.F.,.F.)B_SPLINE_CURVE_WITH_KNOTS((3,3),(0.0289629394687463,0.378837270102338),.UNSPECIFIED.)RATIONAL_B_SPLINE_CURVE((1.03045700832998,1.20710678118655,1.20710678118655))BOUNDED_CURVE()REPRESENTATION_ITEM('')GEOMETRIC_REPRESENTATION_ITEM()CURVE());
#903=CIRCLE('',#1145,4.7);
#904=LINE('',#1146,#1147);
#905=LINE('',#1148,#1149);
#906=LINE('',#1150,#1151);
#907=LINE('',#1152,#1153);
#908=CIRCLE('',#1154,0.201794919243113);
#909=CIRCLE('',#1155,0.201794919243113);
#910=CARTESIAN_POINT('',(-11.6072070549947,-6.5,-2.36316202801582));
#911=CARTESIAN_POINT('',(-11.6906420387577,-6.2,-2.2113773005744));
#912=CARTESIAN_POINT('',(-11.6489245468762,-6.35,-2.28726966429511));
#913=VECTOR('',#1156,1.0);
#914=CARTESIAN_POINT('',(-11.4127929450053,-6.5,-2.71683972248684));
#915=AXIS2_PLACEMENT_3D('',#1157,#1158,#1159);
#916=CARTESIAN_POINT('',(-11.3293579612423,-6.2,-2.86862444992827));
#917=CARTESIAN_POINT('',(-11.3710754531238,-6.35,-2.79273208620756));
#918=VECTOR('',#1160,0.288397459621557);
#919=AXIS2_PLACEMENT_3D('',#1161,#1162,#1163);
#920=CARTESIAN_POINT('',(-11.3293579612423,-3.5,-2.86862444992827));
#921=CARTESIAN_POINT('',(-11.3293579612423,-4.9,-2.86862444992827));
#922=VECTOR('',#1164,1.0);
#923=AXIS2_PLACEMENT_3D('',#1165,#1166,#1167);
#924=CARTESIAN_POINT('',(-11.6906420387577,-3.5,-2.21137730057439));
#925=CARTESIAN_POINT('',(-11.6906420387577,-4.9,-2.21137730057439));
#926=VECTOR('',#1168,0.375000000000001);
#927=AXIS2_PLACEMENT_3D('',#1169,#1170,#1171);
#928=CARTESIAN_POINT('',(-11.6072070549947,-6.5,2.71683797198417));
#929=CARTESIAN_POINT('',(-11.6906420387577,-6.2,2.8686226994256));
#930=CARTESIAN_POINT('',(-11.6489245468762,-6.35,2.79273033570488));
#931=VECTOR('',#1172,1.0);
#932=CARTESIAN_POINT('',(-11.4127929450053,-6.5,2.36316027751316));
#933=AXIS2_PLACEMENT_3D('',#1173,#1174,#1175);
#934=CARTESIAN_POINT('',(-11.3293579612423,-6.2,2.21137555007173));
#935=CARTESIAN_POINT('',(-11.3710754531238,-6.35,2.28726791379244));
#936=VECTOR('',#1176,0.288397459621557);
#937=AXIS2_PLACEMENT_3D('',#1177,#1178,#1179);
#938=CARTESIAN_POINT('',(-11.3293579612423,-3.5,2.21137555007173));
#939=CARTESIAN_POINT('',(-11.3293579612423,-4.9,2.21137555007173));
#940=VECTOR('',#1180,1.0);
#941=AXIS2_PLACEMENT_3D('',#1181,#1182,#1183);
#942=CARTESIAN_POINT('',(-11.6906420387577,-3.5,2.86862269942561));
#943=CARTESIAN_POINT('',(-11.6906420387577,-4.9,2.8686226994256));
#944=VECTOR('',#1184,0.375000000000001);
#945=AXIS2_PLACEMENT_3D('',#1185,#1186,#1187);
#946=CARTESIAN_POINT('',(-16.4541630560343,3.5,2.40416218078293));
#947=CARTESIAN_POINT('',(-17.3734018715768,2.19999999999999,3.32340099632544));
#948=CARTESIAN_POINT('',(-17.0020815280171,2.72512626584708,2.9520806527658));
#949=VECTOR('',#1188,1.0);
#950=CARTESIAN_POINT('',(-11.6458369439657,3.5,-2.40416393128559));
#951=AXIS2_PLACEMENT_3D('',#1189,#1190,#1191);
#952=CARTESIAN_POINT('',(-10.7265981284232,2.19999999999999,-3.32340274682811));
#953=CARTESIAN_POINT('',(-11.0979184719829,2.72512626584708,-2.95208240326846));
#954=VECTOR('',#1192,4.17487373415292);
#955=CARTESIAN_POINT('',(-10.9131225717284,2.2,-3.50000087525134));
#956=AXIS2_PLACEMENT_3D('',#1193,#1194,#1195);
#957=CARTESIAN_POINT('',(-17.1868774282716,2.2,-3.50000087525133));
#959=CARTESIAN_POINT('',(-17.1868774282716,2.2,-3.50000087525134));
#960=CARTESIAN_POINT('',(-14.0500000000002,4.29361702127646,-3.50000087525133));
#961=CARTESIAN_POINT('',(-10.9131225717291,2.20000000000048,-3.50000087525133));
#968=CARTESIAN_POINT('',(-17.55,2.2,-3.13687830352296));
#969=AXIS2_PLACEMENT_3D('',#1196,#1197,#1198);
#970=CARTESIAN_POINT('',(-17.55,2.19999999999999,3.13687655302029));
#972=CARTESIAN_POINT('',(-17.55,2.2,3.13687655302029));
#973=CARTESIAN_POINT('',(-17.55,4.29361702127646,-8.75251133951185E-07));
#974=CARTESIAN_POINT('',(-17.55,2.20000000000048,-3.13687830352224));
#981=AXIS2_PLACEMENT_3D('',#1199,#1200,#1201);
#982=CARTESIAN_POINT('',(-16.6872070549947,-6.5,2.71683797198417));
#983=CARTESIAN_POINT('',(-16.7706420387577,-6.2,2.8686226994256));
#984=CARTESIAN_POINT('',(-16.7289245468762,-6.35,2.79273033570488));
#985=VECTOR('',#1202,1.0);
#986=CARTESIAN_POINT('',(-16.4927929450053,-6.5,2.36316027751315));
#987=AXIS2_PLACEMENT_3D('',#1203,#1204,#1205);
#988=CARTESIAN_POINT('',(-16.4093579612423,-6.2,2.21137555007172));
#989=CARTESIAN_POINT('',(-16.4510754531238,-6.35,2.28726791379244));
#990=VECTOR('',#1206,0.288397459621557);
#991=AXIS2_PLACEMENT_3D('',#1207,#1208,#1209);
#992=CARTESIAN_POINT('',(-16.4093579612423,-3.5,2.21137555007173));
#993=CARTESIAN_POINT('',(-16.4093579612423,-4.9,2.21137555007172));
#994=VECTOR('',#1210,1.0);
#995=AXIS2_PLACEMENT_3D('',#1211,#1212,#1213);
#996=CARTESIAN_POINT('',(-16.7706420387577,-3.5,2.8686226994256));
#997=CARTESIAN_POINT('',(-16.7706420387577,-4.9,2.8686226994256));
#998=VECTOR('',#1214,0.375000000000001);
#999=AXIS2_PLACEMENT_3D('',#1215,#1216,#1217);
#1000=CARTESIAN_POINT('',(-14.4,-6.01482312222434,-8.75251334901552E-07));
#1001=CARTESIAN_POINT('',(-14.4,-3.5,-8.75251334858691E-07));
#1002=CARTESIAN_POINT('',(-14.4,-4.75741156111217,-8.75251334858691E-07));
#1003=VECTOR('',#1218,1.0);
#1004=CARTESIAN_POINT('',(-13.7,-6.01482312222434,-8.75251334944415E-07));
#1005=AXIS2_PLACEMENT_3D('',#1219,#1220,#1221);
#1006=CARTESIAN_POINT('',(-13.7,-3.5,-8.75251334858689E-07));
#1007=CARTESIAN_POINT('',(-13.7,-2.23982312222434,-8.75251334944415E-07));
#1008=VECTOR('',#1222,0.349999999999998);
#1009=AXIS2_PLACEMENT_3D('',#1223,#1224,#1225);
#1010=CARTESIAN_POINT('',(-14.2267949192431,-6.31482312222434,-8.75251334901552E-07));
#1011=CARTESIAN_POINT('',(-14.3133974596216,-6.16482312222434,-8.75251334869296E-07));
#1012=VECTOR('',#1226,1.0);
#1013=CARTESIAN_POINT('',(-13.8732050807569,-6.31482312222434,-8.75251334923203E-07));
#1014=AXIS2_PLACEMENT_3D('',#1227,#1228,#1229);
#1015=CARTESIAN_POINT('',(-13.7866025403784,-6.16482312222434,-8.75251334933809E-07));
#1016=VECTOR('',#1230,0.263397459621554);
#1017=CARTESIAN_POINT('',(-10.55,3.4,-8.75251334901552E-07));
#1018=CARTESIAN_POINT('',(-0.2,3.4,-8.75251334485172E-07));
#1019=CARTESIAN_POINT('',(-5.275,3.4,-8.75251334485186E-07));
#1020=VECTOR('',#1231,1.0);
#1021=CARTESIAN_POINT('',(-10.55,1.31148770486039,3.13687655302029));
#1022=AXIS2_PLACEMENT_3D('',#1232,#1233,#1234);
#1023=CARTESIAN_POINT('',(-10.55,-1.3114877048604,3.13687655302029));
#1024=AXIS2_PLACEMENT_3D('',#1235,#1236,#1237);
#1025=CARTESIAN_POINT('',(-10.55,-3.4,-8.75251335317932E-07));
#1026=AXIS2_PLACEMENT_3D('',#1238,#1239,#1240);
#1027=CARTESIAN_POINT('',(-0.2,-3.4,-8.75251335317932E-07));
#1028=CARTESIAN_POINT('',(-5.275,-3.4,-8.75251335317932E-07));
#1029=VECTOR('',#1241,3.4);
#1030=AXIS2_PLACEMENT_3D('',#1242,#1243,#1244);
#1031=CARTESIAN_POINT('',(6.00053792844369E-16,-3.2,-8.75251334509678E-07));
#1032=CARTESIAN_POINT('',(-0.0999999999999998,-3.3,-8.75251334497432E-07));
#1033=VECTOR('',#1245,1.0);
#1034=CARTESIAN_POINT('',(-1.83720158609936E-16,3.2,-8.75251335293439E-07));
#1035=AXIS2_PLACEMENT_3D('',#1246,#1247,#1248);
#1036=CARTESIAN_POINT('',(-0.1,3.3,-8.75251334497418E-07));
#1037=VECTOR('',#1249,3.3);
#1038=CARTESIAN_POINT('',(-16.4093579612423,-6.2,-2.86862444992827));
#1039=CARTESIAN_POINT('',(-16.4093579612423,-3.5,-2.86862444992827));
#1040=CARTESIAN_POINT('',(-16.4093579612423,-4.9,-2.86862444992827));
#1041=VECTOR('',#1250,1.0);
#1042=CARTESIAN_POINT('',(-16.7706420387577,-6.2,-2.2113773005744));
#1043=AXIS2_PLACEMENT_3D('',#1251,#1252,#1253);
#1044=CARTESIAN_POINT('',(-16.7706420387577,-3.5,-2.21137730057439));
#1045=CARTESIAN_POINT('',(-16.7706420387577,-4.9,-2.2113773005744));
#1046=VECTOR('',#1254,0.375000000000001);
#1047=AXIS2_PLACEMENT_3D('',#1255,#1256,#1257);
#1048=CARTESIAN_POINT('',(-16.6872070549947,-6.5,-2.36316202801583));
#1049=CARTESIAN_POINT('',(-16.7289245468762,-6.35,-2.28726966429512));
#1050=VECTOR('',#1258,1.0);
#1051=CARTESIAN_POINT('',(-16.4927929450053,-6.5,-2.71683972248685));
#1052=AXIS2_PLACEMENT_3D('',#1259,#1260,#1261);
#1053=CARTESIAN_POINT('',(-16.4510754531238,-6.35,-2.79273208620756));
#1054=VECTOR('',#1262,0.288397459621557);
#1055=AXIS2_PLACEMENT_3D('',#1263,#1264,#1265);
#1056=CARTESIAN_POINT('',(-10.55,-3.5,3.13687655302029));
#1057=CARTESIAN_POINT('',(-10.9131225717284,-3.5,3.49999912474867));
#1058=AXIS2_PLACEMENT_3D('',#1266,#1267,#1268);
#1059=CARTESIAN_POINT('',(-17.1868774282716,-3.5,3.49999912474867));
#1060=CARTESIAN_POINT('',(-10.55,-3.5,3.49999912474867));
#1061=VECTOR('',#1269,10.0);
#1062=CARTESIAN_POINT('',(-17.55,-3.5,3.13687655302029));
#1063=AXIS2_PLACEMENT_3D('',#1270,#1271,#1272);
#1064=CARTESIAN_POINT('',(-17.55,-3.5,-3.13687830352296));
#1065=CARTESIAN_POINT('',(-17.55,-3.5,-8.75251334901552E-07));
#1066=VECTOR('',#1273,10.0);
#1067=CARTESIAN_POINT('',(-17.1868774282716,-3.5,-3.50000087525133));
#1068=AXIS2_PLACEMENT_3D('',#1274,#1275,#1276);
#1069=CARTESIAN_POINT('',(-10.9131225717284,-3.5,-3.50000087525133));
#1070=CARTESIAN_POINT('',(-10.55,-3.5,-3.50000087525133));
#1071=VECTOR('',#1277,10.0);
#1072=CARTESIAN_POINT('',(-10.55,-3.5,-3.13687830352296));
#1073=AXIS2_PLACEMENT_3D('',#1278,#1279,#1280);
#1074=CARTESIAN_POINT('',(-10.55,-3.5,-8.75251334901552E-07));
#1075=VECTOR('',#1281,10.0);
#1076=AXIS2_PLACEMENT_3D('',#1282,#1283,#1284);
#1077=AXIS2_PLACEMENT_3D('',#1285,#1286,#1287);
#1078=AXIS2_PLACEMENT_3D('',#1288,#1289,#1290);
#1079=AXIS2_PLACEMENT_3D('',#1291,#1292,#1293);
#1080=AXIS2_PLACEMENT_3D('',#1294,#1295,#1296);
#1081=AXIS2_PLACEMENT_3D('',#1297,#1298,#1299);
#1082=CARTESIAN_POINT('',(-10.55,-1.31148770486039,-3.13687830352296));
#1083=CARTESIAN_POINT('',(-10.55,1.31148770486039,-3.13687830352296));
#1084=CARTESIAN_POINT('',(-10.55,-3.5,-3.13687830352296));
#1085=VECTOR('',#1300,10.0);
#1086=AXIS2_PLACEMENT_3D('',#1301,#1302,#1303);
#1087=CARTESIAN_POINT('',(-10.55,-3.5,3.13687655302029));
#1088=VECTOR('',#1304,10.0);
#1089=AXIS2_PLACEMENT_3D('',#1305,#1306,#1307);
#1090=AXIS2_PLACEMENT_3D('',#1308,#1309,#1310);
#1091=AXIS2_PLACEMENT_3D('',#1311,#1312,#1313);
#1092=AXIS2_PLACEMENT_3D('',#1314,#1315,#1316);
#1093=CARTESIAN_POINT('',(-10.55,-3.5,3.13687655302029));
#1094=VECTOR('',#1317,10.0);
#1095=CARTESIAN_POINT('',(-10.55,-3.5,-3.13687830352296));
#1096=VECTOR('',#1318,10.0);
#1097=AXIS2_PLACEMENT_3D('',#1319,#1320,#1321);
#1098=AXIS2_PLACEMENT_3D('',#1322,#1323,#1324);
#1099=AXIS2_PLACEMENT_3D('',#1325,#1326,#1327);
#1100=CARTESIAN_POINT('',(-10.9131225717284,2.2,3.49999912474867));
#1101=CARTESIAN_POINT('',(-17.1868774282716,2.2,3.49999912474867));
#1103=CARTESIAN_POINT('',(-10.9131225717284,2.2,3.49999912474867));
#1104=CARTESIAN_POINT('',(-14.05,4.29361702127659,3.49999912474867));
#1105=CARTESIAN_POINT('',(-17.1868774282716,2.2,3.49999912474867));
#1112=CARTESIAN_POINT('',(-17.1868774282716,-3.5,3.49999912474867));
#1113=VECTOR('',#1328,10.0);
#1114=CARTESIAN_POINT('',(-10.9131225717284,-3.5,3.49999912474867));
#1115=VECTOR('',#1329,10.0);
#1116=AXIS2_PLACEMENT_3D('',#1330,#1331,#1332);
#1117=CARTESIAN_POINT('',(-17.55,-3.5,-3.13687830352296));
#1118=VECTOR('',#1333,10.0);
#1119=CARTESIAN_POINT('',(-17.55,-3.5,3.13687655302029));
#1120=VECTOR('',#1334,10.0);
#1121=AXIS2_PLACEMENT_3D('',#1335,#1336,#1337);
#1122=CARTESIAN_POINT('',(-10.55,2.2,3.13687655302029));
#1123=AXIS2_PLACEMENT_3D('',#1338,#1339,#1340);
#1125=CARTESIAN_POINT('',(-10.55,3.4,-8.75251335255347E-07));
#1126=CARTESIAN_POINT('',(-10.55,3.4,1.33891022218167));
#1127=CARTESIAN_POINT('',(-10.55,2.2,3.13687655302029));
#1134=CARTESIAN_POINT('',(-10.55,2.2,-3.13687830352296));
#1136=CARTESIAN_POINT('',(-10.55,2.2,-3.13687830352296));
#1137=CARTESIAN_POINT('',(-10.55,3.4,-1.33891197268435));
#1138=CARTESIAN_POINT('',(-10.55,3.4,-8.75251335255347E-07));
#1145=AXIS2_PLACEMENT_3D('',#1341,#1342,#1343);
#1146=CARTESIAN_POINT('',(-10.55,-3.5,3.13687655302029));
#1147=VECTOR('',#1344,10.0);
#1148=CARTESIAN_POINT('',(-17.1868774282716,-3.5,-3.50000087525133));
#1149=VECTOR('',#1345,10.0);
#1150=CARTESIAN_POINT('',(-10.55,-3.5,-3.13687830352296));
#1151=VECTOR('',#1346,10.0);
#1152=CARTESIAN_POINT('',(-10.9131225717284,-3.5,-3.50000087525133));
#1153=VECTOR('',#1347,10.0);
#1154=AXIS2_PLACEMENT_3D('',#1348,#1349,#1350);
#1155=AXIS2_PLACEMENT_3D('',#1351,#1352,#1353);
#1156=DIRECTION('',(-0.240856051676981,0.866025403784438,0.438164766235917));
#1157=CARTESIAN_POINT('',(-11.51,-6.5,-2.54000087525133));
#1158=DIRECTION('',(-1.13380268912512E-16,1.0,6.42825966368783E-16));
#1159=DIRECTION('',(-0.48171210335396,-6.17944026385394E-16,0.876329532471834));
#1160=DIRECTION('',(-0.24085605167698,-0.866025403784439,0.438164766235916));
#1161=CARTESIAN_POINT('',(-11.51,-6.2,-2.54000087525133));
#1162=DIRECTION('',(1.13380268912512E-16,-1.0,-6.42825966368783E-16));
#1163=DIRECTION('',(-0.48171210335396,-6.17944026385394E-16,0.876329532471834));
#1164=DIRECTION('',(-1.13380268912512E-16,1.0,6.42825966368783E-16));
#1165=CARTESIAN_POINT('',(-11.51,-6.2,-2.54000087525133));
#1166=DIRECTION('',(1.13380268912512E-16,-1.0,-6.42825966368783E-16));
#1167=DIRECTION('',(-0.48171210335396,-6.17944026385394E-16,0.876329532471834));
#1168=DIRECTION('',(1.13380268912512E-16,-1.0,-6.42825966368783E-16));
#1169=CARTESIAN_POINT('',(-11.51,-3.5,-2.54000087525133));
#1170=DIRECTION('',(2.9747690332696E-16,-1.0,-5.41629357446991E-16));
#1171=DIRECTION('',(0.48171210335396,6.17944026385394E-16,-0.876329532471834));
#1172=DIRECTION('',(-0.240856051676981,0.866025403784438,0.438164766235917));
#1173=CARTESIAN_POINT('',(-11.51,-6.5,2.53999912474866));
#1174=DIRECTION('',(-1.13380268912512E-16,1.0,6.42825966368783E-16));
#1175=DIRECTION('',(-0.48171210335396,-6.17944026385394E-16,0.876329532471834));
#1176=DIRECTION('',(-0.24085605167698,-0.866025403784439,0.438164766235916));
#1177=CARTESIAN_POINT('',(-11.51,-6.2,2.53999912474866));
#1178=DIRECTION('',(1.13380268912512E-16,-1.0,-6.42825966368783E-16));
#1179=DIRECTION('',(-0.48171210335396,-6.17944026385394E-16,0.876329532471834));
#1180=DIRECTION('',(-1.13380268912512E-16,1.0,6.42825966368783E-16));
#1181=CARTESIAN_POINT('',(-11.51,-6.2,2.53999912474866));
#1182=DIRECTION('',(1.13380268912512E-16,-1.0,-6.42825966368783E-16));
#1183=DIRECTION('',(-0.48171210335396,-6.17944026385394E-16,0.876329532471834));
#1184=DIRECTION('',(1.13380268912512E-16,-1.0,-6.42825966368783E-16));
#1185=CARTESIAN_POINT('',(-11.51,-3.5,2.53999912474867));
#1186=DIRECTION('',(2.9747690332696E-16,-1.0,-5.41629357446991E-16));
#1187=DIRECTION('',(0.48171210335396,6.17944026385394E-16,-0.876329532471834));
#1188=DIRECTION('',(-0.5,-0.707106781186548,0.5));
#1189=CARTESIAN_POINT('',(-14.05,3.5,-8.75251334901552E-07));
#1190=DIRECTION('',(-5.63277160475503E-18,1.0,5.88566893634989E-18));
#1191=DIRECTION('',(-0.707106781186548,-8.14476741530934E-18,0.707106781186548));
#1192=DIRECTION('',(0.5,-0.707106781186548,-0.5));
#1193=CARTESIAN_POINT('',(-14.05,2.19999999999999,-8.75251334901552E-07));
#1194=DIRECTION('',(2.52897331594853E-19,1.0,-4.18490888775859E-34));
#1195=DIRECTION('',(-0.667420729419494,1.68788921521281E-19,0.74468085106383));
#1196=CARTESIAN_POINT('',(-14.05,2.19999999999999,-8.75251334901552E-07));
#1197=DIRECTION('',(2.52897331594853E-19,1.0,1.91808324022269E-34));
#1198=DIRECTION('',(0.74468085106383,-1.88327800123827E-19,0.667420729419495));
#1199=CARTESIAN_POINT('',(-14.05,2.19999999999999,-8.75251334901552E-07));
#1200=DIRECTION('',(2.52897331594853E-19,1.0,-2.44119685119251E-34));
#1201=DIRECTION('',(0.667420729419495,-1.68788921521281E-19,-0.74468085106383));
#1202=DIRECTION('',(-0.240856051676981,0.866025403784438,0.438164766235917));
#1203=CARTESIAN_POINT('',(-16.59,-6.5,2.53999912474866));
#1204=DIRECTION('',(-1.13380268912512E-16,1.0,6.42825966368783E-16));
#1205=DIRECTION('',(-0.48171210335396,-6.17944026385394E-16,0.876329532471834));
#1206=DIRECTION('',(-0.24085605167698,-0.866025403784439,0.438164766235916));
#1207=CARTESIAN_POINT('',(-16.59,-6.2,2.53999912474866));
#1208=DIRECTION('',(1.13380268912512E-16,-1.0,-6.42825966368783E-16));
#1209=DIRECTION('',(-0.48171210335396,-6.17944026385394E-16,0.876329532471834));
#1210=DIRECTION('',(-1.13380268912512E-16,1.0,6.42825966368783E-16));
#1211=CARTESIAN_POINT('',(-16.59,-6.2,2.53999912474866));
#1212=DIRECTION('',(1.13380268912512E-16,-1.0,-6.42825966368783E-16));
#1213=DIRECTION('',(-0.48171210335396,-6.17944026385394E-16,0.876329532471834));
#1214=DIRECTION('',(1.13380268912512E-16,-1.0,-6.42825966368783E-16));
#1215=CARTESIAN_POINT('',(-16.59,-3.5,2.53999912474867));
#1216=DIRECTION('',(2.9747690332696E-16,-1.0,-5.41629357446991E-16));
#1217=DIRECTION('',(0.48171210335396,6.17944026385394E-16,-0.876329532471834));
#1218=DIRECTION('',(-1.45115300201241E-15,1.0,-1.2325951644078E-32));
#1219=CARTESIAN_POINT('',(-14.05,-6.01482312222434,-8.75251334901552E-07));
#1220=DIRECTION('',(-1.45115300201241E-15,1.0,-1.2325951644078E-32));
#1221=DIRECTION('',(-1.0,-1.45115300201241E-15,2.15318448671839E-31));
#1222=DIRECTION('',(1.75731470179925E-15,-1.0,1.23259516440779E-32));
#1223=CARTESIAN_POINT('',(-14.05,-3.5,-8.75251334901552E-07));
#1224=DIRECTION('',(1.45115300201241E-15,-1.0,-4.31674304937211E-37));
#1225=DIRECTION('',(-1.0,-1.45115300201241E-15,2.15318448671839E-31));
#1226=DIRECTION('',(-0.500000000000002,0.866025403784438,6.12303962816038E-17));
#1227=CARTESIAN_POINT('',(-14.05,-6.31482312222434,-8.75251334901552E-07));
#1228=DIRECTION('',(-1.45115300201241E-15,1.0,-1.2325951644078E-32));
#1229=DIRECTION('',(-1.0,-1.45115300201241E-15,2.15318448671839E-31));
#1230=DIRECTION('',(-0.499999999999998,-0.86602540378444,6.12323399573677E-17));
#1231=DIRECTION('',(1.0,-1.23259516440783E-32,7.70371977754894E-34));
#1232=CARTESIAN_POINT('',(-10.55,-1.29200237310046E-15,-8.75251334901552E-07));
#1233=DIRECTION('',(-1.0,1.23259516440783E-32,-9.62964972193618E-34));
#1234=DIRECTION('',(1.23259516440783E-32,1.0,9.4955677457598E-66));
#1235=CARTESIAN_POINT('',(-10.55,-1.29200237310046E-15,-8.75251334901552E-07));
#1236=DIRECTION('',(1.0,-1.23259516440783E-32,7.70371977754894E-34));
#1237=DIRECTION('',(1.23259516440783E-32,1.0,9.4955677457598E-66));
#1238=CARTESIAN_POINT('',(-10.55,-1.29200237310046E-15,-8.75251334901552E-07));
#1239=DIRECTION('',(-1.0,1.23259516440783E-32,-9.62964972193618E-34));
#1240=DIRECTION('',(1.23259516440783E-32,1.0,9.4955677457598E-66));
#1241=DIRECTION('',(-1.0,-1.22464679914735E-16,-7.70371977754894E-34));
#1242=CARTESIAN_POINT('',(-0.2,-2.44929359829471E-17,-8.75251334901552E-07));
#1243=DIRECTION('',(1.0,-1.23259516440783E-32,7.70371977754894E-34));
#1244=DIRECTION('',(-1.23259516440783E-32,-1.0,-9.4955677457598E-66));
#1245=DIRECTION('',(-0.707106781186549,-0.707106781186546,8.65927366323033E-17));
#1246=CARTESIAN_POINT('',(2.08166817117217E-16,-2.69630192214213E-32,-8.75251334901552E-07));
#1247=DIRECTION('',(-1.0,-1.22464679914735E-16,-7.70371977754894E-34));
#1248=DIRECTION('',(1.22464679914735E-16,-1.0,9.43433576710347E-50));
#1249=DIRECTION('',(-0.70710678118655,0.707106781186545,8.65956056235491E-17));
#1250=DIRECTION('',(-1.13380268912512E-16,1.0,6.42825966368783E-16));
#1251=CARTESIAN_POINT('',(-16.59,-6.2,-2.54000087525134));
#1252=DIRECTION('',(1.13380268912512E-16,-1.0,-6.42825966368783E-16));
#1253=DIRECTION('',(-0.48171210335396,-6.17944026385394E-16,0.876329532471834));
#1254=DIRECTION('',(1.13380268912512E-16,-1.0,-6.42825966368783E-16));
#1255=CARTESIAN_POINT('',(-16.59,-3.5,-2.54000087525133));
#1256=DIRECTION('',(2.9747690332696E-16,-1.0,-5.41629357446991E-16));
#1257=DIRECTION('',(0.48171210335396,6.17944026385394E-16,-0.876329532471834));
#1258=DIRECTION('',(-0.240856051676981,0.866025403784438,0.438164766235917));
#1259=CARTESIAN_POINT('',(-16.59,-6.5,-2.54000087525134));
#1260=DIRECTION('',(-1.13380268912512E-16,1.0,6.42825966368783E-16));
#1261=DIRECTION('',(-0.48171210335396,-6.17944026385394E-16,0.876329532471834));
#1262=DIRECTION('',(-0.24085605167698,-0.866025403784439,0.438164766235916));
#1263=CARTESIAN_POINT('',(-16.59,-6.2,-2.54000087525134));
#1264=DIRECTION('',(1.13380268912512E-16,-1.0,-6.42825966368783E-16));
#1265=DIRECTION('',(-0.48171210335396,-6.17944026385394E-16,0.876329532471834));
#1266=CARTESIAN_POINT('',(-14.05,-3.5,-8.75251334901552E-07));
#1267=DIRECTION('',(-2.52897331594853E-19,-1.0,-1.91808324022269E-34));
#1268=DIRECTION('',(-0.74468085106383,1.88327800123827E-19,-0.667420729419495));
#1269=DIRECTION('',(-1.0,2.52897331594853E-19,-9.62964972193618E-34));
#1270=CARTESIAN_POINT('',(-14.05,-3.5,-8.75251334901552E-07));
#1271=DIRECTION('',(-2.52897331594853E-19,-1.0,2.44119685119251E-34));
#1272=DIRECTION('',(0.667420729419495,-1.68788921521281E-19,-0.74468085106383));
#1273=DIRECTION('',(9.62964972193618E-34,4.31674304624697E-37,-1.0));
#1274=CARTESIAN_POINT('',(-14.05,-3.5,-8.75251334901552E-07));
#1275=DIRECTION('',(-2.52897331594853E-19,-1.0,-1.91808324022269E-34));
#1276=DIRECTION('',(0.74468085106383,-1.88327800123827E-19,0.667420729419495));
#1277=DIRECTION('',(1.0,-2.52897331594853E-19,9.62964972193618E-34));
#1278=CARTESIAN_POINT('',(-14.05,-3.5,-8.75251334901552E-07));
#1279=DIRECTION('',(-2.52897331594853E-19,-1.0,4.18490888775859E-34));
#1280=DIRECTION('',(-0.667420729419494,1.68788921521281E-19,0.74468085106383));
#1281=DIRECTION('',(-9.62964972193618E-34,-4.31674304624697E-37,1.0));
#1282=CARTESIAN_POINT('',(-11.51,-3.5,-2.54000087525133));
#1283=DIRECTION('',(2.9747690332696E-16,-1.0,-5.41629357446991E-16));
#1284=DIRECTION('',(0.48171210335396,6.17944026385394E-16,-0.876329532471834));
#1285=CARTESIAN_POINT('',(-16.59,-3.5,-2.54000087525133));
#1286=DIRECTION('',(2.9747690332696E-16,-1.0,-5.41629357446991E-16));
#1287=DIRECTION('',(0.48171210335396,6.17944026385394E-16,-0.876329532471834));
#1288=CARTESIAN_POINT('',(-11.51,-3.5,2.53999912474867));
#1289=DIRECTION('',(2.9747690332696E-16,-1.0,-5.41629357446991E-16));
#1290=DIRECTION('',(0.48171210335396,6.17944026385394E-16,-0.876329532471834));
#1291=CARTESIAN_POINT('',(-16.59,-3.5,2.53999912474867));
#1292=DIRECTION('',(2.9747690332696E-16,-1.0,-5.41629357446991E-16));
#1293=DIRECTION('',(0.48171210335396,6.17944026385394E-16,-0.876329532471834));
#1294=CARTESIAN_POINT('',(-14.05,-3.5,-8.75251334901552E-07));
#1295=DIRECTION('',(1.45115300201241E-15,-1.0,-4.31674304937211E-37));
#1296=DIRECTION('',(-1.0,-1.45115300201241E-15,2.15318448671839E-31));
#1297=CARTESIAN_POINT('',(-16.59,-6.5,-2.54000087525134));
#1298=DIRECTION('',(-1.13380268912512E-16,1.0,6.42825966368783E-16));
#1299=DIRECTION('',(-0.48171210335396,-6.17944026385394E-16,0.876329532471834));
#1300=DIRECTION('',(2.52897331594853E-19,1.0,4.31674304624697E-37));
#1301=CARTESIAN_POINT('',(-10.55,-1.29200237310046E-15,-8.75251334901552E-07));
#1302=DIRECTION('',(1.0,-1.23259516440783E-32,7.70371977754894E-34));
#1303=DIRECTION('',(1.23259516440783E-32,1.0,9.4955677457598E-66));
#1304=DIRECTION('',(-2.52897331594853E-19,-1.0,-4.31674304624697E-37));
#1305=CARTESIAN_POINT('',(2.08166817117217E-16,-2.69630192214213E-32,-8.75251334901552E-07));
#1306=DIRECTION('',(-1.0,-1.22464679914735E-16,-7.70371977754894E-34));
#1307=DIRECTION('',(1.22464679914735E-16,-1.0,9.43433576710347E-50));
#1308=CARTESIAN_POINT('',(-0.2,-2.44929359829471E-17,-8.75251334901552E-07));
#1309=DIRECTION('',(1.0,-1.23259516440783E-32,7.70371977754894E-34));
#1310=DIRECTION('',(-1.23259516440783E-32,-1.0,-9.4955677457598E-66));
#1311=CARTESIAN_POINT('',(-10.55,-1.29200237310046E-15,-8.75251334901552E-07));
#1312=DIRECTION('',(-1.0,1.23259516440783E-32,-9.62964972193618E-34));
#1313=DIRECTION('',(1.23259516440783E-32,1.0,9.4955677457598E-66));
#1314=CARTESIAN_POINT('',(-10.55,-1.29200237310046E-15,-8.75251334901552E-07));
#1315=DIRECTION('',(-1.0,1.23259516440783E-32,-9.62964972193618E-34));
#1316=DIRECTION('',(1.23259516440783E-32,1.0,9.4955677457598E-66));
#1317=DIRECTION('',(-2.52897331594853E-19,-1.0,-4.31674304624697E-37));
#1318=DIRECTION('',(2.52897331594853E-19,1.0,4.31674304624697E-37));
#1319=CARTESIAN_POINT('',(-14.05,-6.01482312222434,-8.75251334901552E-07));
#1320=DIRECTION('',(-1.45115300201241E-15,1.0,-1.2325951644078E-32));
#1321=DIRECTION('',(-1.0,-1.45115300201241E-15,2.15318448671839E-31));
#1322=CARTESIAN_POINT('',(-14.05,-6.31482312222434,-8.75251334901552E-07));
#1323=DIRECTION('',(-1.45115300201241E-15,1.0,-1.2325951644078E-32));
#1324=DIRECTION('',(-1.0,-1.45115300201241E-15,2.15318448671839E-31));
#1325=CARTESIAN_POINT('',(-16.59,-6.5,2.53999912474866));
#1326=DIRECTION('',(-1.13380268912512E-16,1.0,6.42825966368783E-16));
#1327=DIRECTION('',(-0.48171210335396,-6.17944026385394E-16,0.876329532471834));
#1328=DIRECTION('',(-2.52897331594853E-19,-1.0,-4.31674304624697E-37));
#1329=DIRECTION('',(2.52897331594853E-19,1.0,4.31674304624697E-37));
#1330=CARTESIAN_POINT('',(-14.05,3.5,-8.75251334901552E-07));
#1331=DIRECTION('',(-5.63277160475503E-18,1.0,5.88566893634989E-18));
#1332=DIRECTION('',(-0.707106781186548,-8.14476741530934E-18,0.707106781186548));
#1333=DIRECTION('',(-2.52897331594853E-19,-1.0,-4.31674304624697E-37));
#1334=DIRECTION('',(2.52897331594853E-19,1.0,4.31674304624697E-37));
#1335=CARTESIAN_POINT('',(-14.05,2.19999999999999,-8.75251334901552E-07));
#1336=DIRECTION('',(2.52897331594853E-19,1.0,-2.44119685119251E-34));
#1337=DIRECTION('',(0.667420729419495,-1.68788921521281E-19,-0.74468085106383));
#1338=CARTESIAN_POINT('',(-14.05,2.19999999999999,-8.75251334901552E-07));
#1339=DIRECTION('',(2.52897331594853E-19,1.0,1.91808324022269E-34));
#1340=DIRECTION('',(-0.74468085106383,1.88327800123827E-19,-0.667420729419495));
#1341=CARTESIAN_POINT('',(-14.05,2.19999999999999,-8.75251334901552E-07));
#1342=DIRECTION('',(2.52897331594853E-19,1.0,-4.18490888775859E-34));
#1343=DIRECTION('',(-0.667420729419494,1.68788921521281E-19,0.74468085106383));
#1344=DIRECTION('',(-2.52897331594853E-19,-1.0,-4.31674304624697E-37));
#1345=DIRECTION('',(2.52897331594853E-19,1.0,4.31674304624697E-37));
#1346=DIRECTION('',(2.52897331594853E-19,1.0,4.31674304624697E-37));
#1347=DIRECTION('',(-2.52897331594853E-19,-1.0,-4.31674304624697E-37));
#1348=CARTESIAN_POINT('',(-11.51,-6.5,2.53999912474866));
#1349=DIRECTION('',(-1.13380268912512E-16,1.0,6.42825966368783E-16));
#1350=DIRECTION('',(-0.48171210335396,-6.17944026385394E-16,0.876329532471834));
#1351=CARTESIAN_POINT('',(-11.51,-6.5,-2.54000087525133));
#1352=DIRECTION('',(-1.13380268912512E-16,1.0,6.42825966368783E-16));
#1353=DIRECTION('',(-0.48171210335396,-6.17944026385394E-16,0.876329532471834));
ENDSEC;
END-ISO-10303-21;
